G75*
%MOIN*%
%OFA0B0*%
%FSLAX25Y25*%
%IPPOS*%
%LPD*%
%AMOC8*
5,1,8,0,0,1.08239X$1,22.5*
%
%ADD10C,0.00000*%
D10*
X0004000Y0002257D02*
X0151638Y0002257D01*
X0151638Y0179423D01*
X0250063Y0179423D01*
X0250063Y0002257D01*
X0397701Y0002257D01*
X0397701Y0258163D01*
X0004000Y0258163D01*
X0004000Y0002257D01*
X0017779Y0021943D02*
X0017781Y0022096D01*
X0017787Y0022250D01*
X0017797Y0022403D01*
X0017811Y0022555D01*
X0017829Y0022708D01*
X0017851Y0022859D01*
X0017876Y0023010D01*
X0017906Y0023161D01*
X0017940Y0023311D01*
X0017977Y0023459D01*
X0018018Y0023607D01*
X0018063Y0023753D01*
X0018112Y0023899D01*
X0018165Y0024043D01*
X0018221Y0024185D01*
X0018281Y0024326D01*
X0018345Y0024466D01*
X0018412Y0024604D01*
X0018483Y0024740D01*
X0018558Y0024874D01*
X0018635Y0025006D01*
X0018717Y0025136D01*
X0018801Y0025264D01*
X0018889Y0025390D01*
X0018980Y0025513D01*
X0019074Y0025634D01*
X0019172Y0025752D01*
X0019272Y0025868D01*
X0019376Y0025981D01*
X0019482Y0026092D01*
X0019591Y0026200D01*
X0019703Y0026305D01*
X0019817Y0026406D01*
X0019935Y0026505D01*
X0020054Y0026601D01*
X0020176Y0026694D01*
X0020301Y0026783D01*
X0020428Y0026870D01*
X0020557Y0026952D01*
X0020688Y0027032D01*
X0020821Y0027108D01*
X0020956Y0027181D01*
X0021093Y0027250D01*
X0021232Y0027315D01*
X0021372Y0027377D01*
X0021514Y0027435D01*
X0021657Y0027490D01*
X0021802Y0027541D01*
X0021948Y0027588D01*
X0022095Y0027631D01*
X0022243Y0027670D01*
X0022392Y0027706D01*
X0022542Y0027737D01*
X0022693Y0027765D01*
X0022844Y0027789D01*
X0022997Y0027809D01*
X0023149Y0027825D01*
X0023302Y0027837D01*
X0023455Y0027845D01*
X0023608Y0027849D01*
X0023762Y0027849D01*
X0023915Y0027845D01*
X0024068Y0027837D01*
X0024221Y0027825D01*
X0024373Y0027809D01*
X0024526Y0027789D01*
X0024677Y0027765D01*
X0024828Y0027737D01*
X0024978Y0027706D01*
X0025127Y0027670D01*
X0025275Y0027631D01*
X0025422Y0027588D01*
X0025568Y0027541D01*
X0025713Y0027490D01*
X0025856Y0027435D01*
X0025998Y0027377D01*
X0026138Y0027315D01*
X0026277Y0027250D01*
X0026414Y0027181D01*
X0026549Y0027108D01*
X0026682Y0027032D01*
X0026813Y0026952D01*
X0026942Y0026870D01*
X0027069Y0026783D01*
X0027194Y0026694D01*
X0027316Y0026601D01*
X0027435Y0026505D01*
X0027553Y0026406D01*
X0027667Y0026305D01*
X0027779Y0026200D01*
X0027888Y0026092D01*
X0027994Y0025981D01*
X0028098Y0025868D01*
X0028198Y0025752D01*
X0028296Y0025634D01*
X0028390Y0025513D01*
X0028481Y0025390D01*
X0028569Y0025264D01*
X0028653Y0025136D01*
X0028735Y0025006D01*
X0028812Y0024874D01*
X0028887Y0024740D01*
X0028958Y0024604D01*
X0029025Y0024466D01*
X0029089Y0024326D01*
X0029149Y0024185D01*
X0029205Y0024043D01*
X0029258Y0023899D01*
X0029307Y0023753D01*
X0029352Y0023607D01*
X0029393Y0023459D01*
X0029430Y0023311D01*
X0029464Y0023161D01*
X0029494Y0023010D01*
X0029519Y0022859D01*
X0029541Y0022708D01*
X0029559Y0022555D01*
X0029573Y0022403D01*
X0029583Y0022250D01*
X0029589Y0022096D01*
X0029591Y0021943D01*
X0029589Y0021790D01*
X0029583Y0021636D01*
X0029573Y0021483D01*
X0029559Y0021331D01*
X0029541Y0021178D01*
X0029519Y0021027D01*
X0029494Y0020876D01*
X0029464Y0020725D01*
X0029430Y0020575D01*
X0029393Y0020427D01*
X0029352Y0020279D01*
X0029307Y0020133D01*
X0029258Y0019987D01*
X0029205Y0019843D01*
X0029149Y0019701D01*
X0029089Y0019560D01*
X0029025Y0019420D01*
X0028958Y0019282D01*
X0028887Y0019146D01*
X0028812Y0019012D01*
X0028735Y0018880D01*
X0028653Y0018750D01*
X0028569Y0018622D01*
X0028481Y0018496D01*
X0028390Y0018373D01*
X0028296Y0018252D01*
X0028198Y0018134D01*
X0028098Y0018018D01*
X0027994Y0017905D01*
X0027888Y0017794D01*
X0027779Y0017686D01*
X0027667Y0017581D01*
X0027553Y0017480D01*
X0027435Y0017381D01*
X0027316Y0017285D01*
X0027194Y0017192D01*
X0027069Y0017103D01*
X0026942Y0017016D01*
X0026813Y0016934D01*
X0026682Y0016854D01*
X0026549Y0016778D01*
X0026414Y0016705D01*
X0026277Y0016636D01*
X0026138Y0016571D01*
X0025998Y0016509D01*
X0025856Y0016451D01*
X0025713Y0016396D01*
X0025568Y0016345D01*
X0025422Y0016298D01*
X0025275Y0016255D01*
X0025127Y0016216D01*
X0024978Y0016180D01*
X0024828Y0016149D01*
X0024677Y0016121D01*
X0024526Y0016097D01*
X0024373Y0016077D01*
X0024221Y0016061D01*
X0024068Y0016049D01*
X0023915Y0016041D01*
X0023762Y0016037D01*
X0023608Y0016037D01*
X0023455Y0016041D01*
X0023302Y0016049D01*
X0023149Y0016061D01*
X0022997Y0016077D01*
X0022844Y0016097D01*
X0022693Y0016121D01*
X0022542Y0016149D01*
X0022392Y0016180D01*
X0022243Y0016216D01*
X0022095Y0016255D01*
X0021948Y0016298D01*
X0021802Y0016345D01*
X0021657Y0016396D01*
X0021514Y0016451D01*
X0021372Y0016509D01*
X0021232Y0016571D01*
X0021093Y0016636D01*
X0020956Y0016705D01*
X0020821Y0016778D01*
X0020688Y0016854D01*
X0020557Y0016934D01*
X0020428Y0017016D01*
X0020301Y0017103D01*
X0020176Y0017192D01*
X0020054Y0017285D01*
X0019935Y0017381D01*
X0019817Y0017480D01*
X0019703Y0017581D01*
X0019591Y0017686D01*
X0019482Y0017794D01*
X0019376Y0017905D01*
X0019272Y0018018D01*
X0019172Y0018134D01*
X0019074Y0018252D01*
X0018980Y0018373D01*
X0018889Y0018496D01*
X0018801Y0018622D01*
X0018717Y0018750D01*
X0018635Y0018880D01*
X0018558Y0019012D01*
X0018483Y0019146D01*
X0018412Y0019282D01*
X0018345Y0019420D01*
X0018281Y0019560D01*
X0018221Y0019701D01*
X0018165Y0019843D01*
X0018112Y0019987D01*
X0018063Y0020133D01*
X0018018Y0020279D01*
X0017977Y0020427D01*
X0017940Y0020575D01*
X0017906Y0020725D01*
X0017876Y0020876D01*
X0017851Y0021027D01*
X0017829Y0021178D01*
X0017811Y0021331D01*
X0017797Y0021483D01*
X0017787Y0021636D01*
X0017781Y0021790D01*
X0017779Y0021943D01*
X0017779Y0179423D02*
X0017781Y0179576D01*
X0017787Y0179730D01*
X0017797Y0179883D01*
X0017811Y0180035D01*
X0017829Y0180188D01*
X0017851Y0180339D01*
X0017876Y0180490D01*
X0017906Y0180641D01*
X0017940Y0180791D01*
X0017977Y0180939D01*
X0018018Y0181087D01*
X0018063Y0181233D01*
X0018112Y0181379D01*
X0018165Y0181523D01*
X0018221Y0181665D01*
X0018281Y0181806D01*
X0018345Y0181946D01*
X0018412Y0182084D01*
X0018483Y0182220D01*
X0018558Y0182354D01*
X0018635Y0182486D01*
X0018717Y0182616D01*
X0018801Y0182744D01*
X0018889Y0182870D01*
X0018980Y0182993D01*
X0019074Y0183114D01*
X0019172Y0183232D01*
X0019272Y0183348D01*
X0019376Y0183461D01*
X0019482Y0183572D01*
X0019591Y0183680D01*
X0019703Y0183785D01*
X0019817Y0183886D01*
X0019935Y0183985D01*
X0020054Y0184081D01*
X0020176Y0184174D01*
X0020301Y0184263D01*
X0020428Y0184350D01*
X0020557Y0184432D01*
X0020688Y0184512D01*
X0020821Y0184588D01*
X0020956Y0184661D01*
X0021093Y0184730D01*
X0021232Y0184795D01*
X0021372Y0184857D01*
X0021514Y0184915D01*
X0021657Y0184970D01*
X0021802Y0185021D01*
X0021948Y0185068D01*
X0022095Y0185111D01*
X0022243Y0185150D01*
X0022392Y0185186D01*
X0022542Y0185217D01*
X0022693Y0185245D01*
X0022844Y0185269D01*
X0022997Y0185289D01*
X0023149Y0185305D01*
X0023302Y0185317D01*
X0023455Y0185325D01*
X0023608Y0185329D01*
X0023762Y0185329D01*
X0023915Y0185325D01*
X0024068Y0185317D01*
X0024221Y0185305D01*
X0024373Y0185289D01*
X0024526Y0185269D01*
X0024677Y0185245D01*
X0024828Y0185217D01*
X0024978Y0185186D01*
X0025127Y0185150D01*
X0025275Y0185111D01*
X0025422Y0185068D01*
X0025568Y0185021D01*
X0025713Y0184970D01*
X0025856Y0184915D01*
X0025998Y0184857D01*
X0026138Y0184795D01*
X0026277Y0184730D01*
X0026414Y0184661D01*
X0026549Y0184588D01*
X0026682Y0184512D01*
X0026813Y0184432D01*
X0026942Y0184350D01*
X0027069Y0184263D01*
X0027194Y0184174D01*
X0027316Y0184081D01*
X0027435Y0183985D01*
X0027553Y0183886D01*
X0027667Y0183785D01*
X0027779Y0183680D01*
X0027888Y0183572D01*
X0027994Y0183461D01*
X0028098Y0183348D01*
X0028198Y0183232D01*
X0028296Y0183114D01*
X0028390Y0182993D01*
X0028481Y0182870D01*
X0028569Y0182744D01*
X0028653Y0182616D01*
X0028735Y0182486D01*
X0028812Y0182354D01*
X0028887Y0182220D01*
X0028958Y0182084D01*
X0029025Y0181946D01*
X0029089Y0181806D01*
X0029149Y0181665D01*
X0029205Y0181523D01*
X0029258Y0181379D01*
X0029307Y0181233D01*
X0029352Y0181087D01*
X0029393Y0180939D01*
X0029430Y0180791D01*
X0029464Y0180641D01*
X0029494Y0180490D01*
X0029519Y0180339D01*
X0029541Y0180188D01*
X0029559Y0180035D01*
X0029573Y0179883D01*
X0029583Y0179730D01*
X0029589Y0179576D01*
X0029591Y0179423D01*
X0029589Y0179270D01*
X0029583Y0179116D01*
X0029573Y0178963D01*
X0029559Y0178811D01*
X0029541Y0178658D01*
X0029519Y0178507D01*
X0029494Y0178356D01*
X0029464Y0178205D01*
X0029430Y0178055D01*
X0029393Y0177907D01*
X0029352Y0177759D01*
X0029307Y0177613D01*
X0029258Y0177467D01*
X0029205Y0177323D01*
X0029149Y0177181D01*
X0029089Y0177040D01*
X0029025Y0176900D01*
X0028958Y0176762D01*
X0028887Y0176626D01*
X0028812Y0176492D01*
X0028735Y0176360D01*
X0028653Y0176230D01*
X0028569Y0176102D01*
X0028481Y0175976D01*
X0028390Y0175853D01*
X0028296Y0175732D01*
X0028198Y0175614D01*
X0028098Y0175498D01*
X0027994Y0175385D01*
X0027888Y0175274D01*
X0027779Y0175166D01*
X0027667Y0175061D01*
X0027553Y0174960D01*
X0027435Y0174861D01*
X0027316Y0174765D01*
X0027194Y0174672D01*
X0027069Y0174583D01*
X0026942Y0174496D01*
X0026813Y0174414D01*
X0026682Y0174334D01*
X0026549Y0174258D01*
X0026414Y0174185D01*
X0026277Y0174116D01*
X0026138Y0174051D01*
X0025998Y0173989D01*
X0025856Y0173931D01*
X0025713Y0173876D01*
X0025568Y0173825D01*
X0025422Y0173778D01*
X0025275Y0173735D01*
X0025127Y0173696D01*
X0024978Y0173660D01*
X0024828Y0173629D01*
X0024677Y0173601D01*
X0024526Y0173577D01*
X0024373Y0173557D01*
X0024221Y0173541D01*
X0024068Y0173529D01*
X0023915Y0173521D01*
X0023762Y0173517D01*
X0023608Y0173517D01*
X0023455Y0173521D01*
X0023302Y0173529D01*
X0023149Y0173541D01*
X0022997Y0173557D01*
X0022844Y0173577D01*
X0022693Y0173601D01*
X0022542Y0173629D01*
X0022392Y0173660D01*
X0022243Y0173696D01*
X0022095Y0173735D01*
X0021948Y0173778D01*
X0021802Y0173825D01*
X0021657Y0173876D01*
X0021514Y0173931D01*
X0021372Y0173989D01*
X0021232Y0174051D01*
X0021093Y0174116D01*
X0020956Y0174185D01*
X0020821Y0174258D01*
X0020688Y0174334D01*
X0020557Y0174414D01*
X0020428Y0174496D01*
X0020301Y0174583D01*
X0020176Y0174672D01*
X0020054Y0174765D01*
X0019935Y0174861D01*
X0019817Y0174960D01*
X0019703Y0175061D01*
X0019591Y0175166D01*
X0019482Y0175274D01*
X0019376Y0175385D01*
X0019272Y0175498D01*
X0019172Y0175614D01*
X0019074Y0175732D01*
X0018980Y0175853D01*
X0018889Y0175976D01*
X0018801Y0176102D01*
X0018717Y0176230D01*
X0018635Y0176360D01*
X0018558Y0176492D01*
X0018483Y0176626D01*
X0018412Y0176762D01*
X0018345Y0176900D01*
X0018281Y0177040D01*
X0018221Y0177181D01*
X0018165Y0177323D01*
X0018112Y0177467D01*
X0018063Y0177613D01*
X0018018Y0177759D01*
X0017977Y0177907D01*
X0017940Y0178055D01*
X0017906Y0178205D01*
X0017876Y0178356D01*
X0017851Y0178507D01*
X0017829Y0178658D01*
X0017811Y0178811D01*
X0017797Y0178963D01*
X0017787Y0179116D01*
X0017781Y0179270D01*
X0017779Y0179423D01*
X0372110Y0179423D02*
X0372112Y0179576D01*
X0372118Y0179730D01*
X0372128Y0179883D01*
X0372142Y0180035D01*
X0372160Y0180188D01*
X0372182Y0180339D01*
X0372207Y0180490D01*
X0372237Y0180641D01*
X0372271Y0180791D01*
X0372308Y0180939D01*
X0372349Y0181087D01*
X0372394Y0181233D01*
X0372443Y0181379D01*
X0372496Y0181523D01*
X0372552Y0181665D01*
X0372612Y0181806D01*
X0372676Y0181946D01*
X0372743Y0182084D01*
X0372814Y0182220D01*
X0372889Y0182354D01*
X0372966Y0182486D01*
X0373048Y0182616D01*
X0373132Y0182744D01*
X0373220Y0182870D01*
X0373311Y0182993D01*
X0373405Y0183114D01*
X0373503Y0183232D01*
X0373603Y0183348D01*
X0373707Y0183461D01*
X0373813Y0183572D01*
X0373922Y0183680D01*
X0374034Y0183785D01*
X0374148Y0183886D01*
X0374266Y0183985D01*
X0374385Y0184081D01*
X0374507Y0184174D01*
X0374632Y0184263D01*
X0374759Y0184350D01*
X0374888Y0184432D01*
X0375019Y0184512D01*
X0375152Y0184588D01*
X0375287Y0184661D01*
X0375424Y0184730D01*
X0375563Y0184795D01*
X0375703Y0184857D01*
X0375845Y0184915D01*
X0375988Y0184970D01*
X0376133Y0185021D01*
X0376279Y0185068D01*
X0376426Y0185111D01*
X0376574Y0185150D01*
X0376723Y0185186D01*
X0376873Y0185217D01*
X0377024Y0185245D01*
X0377175Y0185269D01*
X0377328Y0185289D01*
X0377480Y0185305D01*
X0377633Y0185317D01*
X0377786Y0185325D01*
X0377939Y0185329D01*
X0378093Y0185329D01*
X0378246Y0185325D01*
X0378399Y0185317D01*
X0378552Y0185305D01*
X0378704Y0185289D01*
X0378857Y0185269D01*
X0379008Y0185245D01*
X0379159Y0185217D01*
X0379309Y0185186D01*
X0379458Y0185150D01*
X0379606Y0185111D01*
X0379753Y0185068D01*
X0379899Y0185021D01*
X0380044Y0184970D01*
X0380187Y0184915D01*
X0380329Y0184857D01*
X0380469Y0184795D01*
X0380608Y0184730D01*
X0380745Y0184661D01*
X0380880Y0184588D01*
X0381013Y0184512D01*
X0381144Y0184432D01*
X0381273Y0184350D01*
X0381400Y0184263D01*
X0381525Y0184174D01*
X0381647Y0184081D01*
X0381766Y0183985D01*
X0381884Y0183886D01*
X0381998Y0183785D01*
X0382110Y0183680D01*
X0382219Y0183572D01*
X0382325Y0183461D01*
X0382429Y0183348D01*
X0382529Y0183232D01*
X0382627Y0183114D01*
X0382721Y0182993D01*
X0382812Y0182870D01*
X0382900Y0182744D01*
X0382984Y0182616D01*
X0383066Y0182486D01*
X0383143Y0182354D01*
X0383218Y0182220D01*
X0383289Y0182084D01*
X0383356Y0181946D01*
X0383420Y0181806D01*
X0383480Y0181665D01*
X0383536Y0181523D01*
X0383589Y0181379D01*
X0383638Y0181233D01*
X0383683Y0181087D01*
X0383724Y0180939D01*
X0383761Y0180791D01*
X0383795Y0180641D01*
X0383825Y0180490D01*
X0383850Y0180339D01*
X0383872Y0180188D01*
X0383890Y0180035D01*
X0383904Y0179883D01*
X0383914Y0179730D01*
X0383920Y0179576D01*
X0383922Y0179423D01*
X0383920Y0179270D01*
X0383914Y0179116D01*
X0383904Y0178963D01*
X0383890Y0178811D01*
X0383872Y0178658D01*
X0383850Y0178507D01*
X0383825Y0178356D01*
X0383795Y0178205D01*
X0383761Y0178055D01*
X0383724Y0177907D01*
X0383683Y0177759D01*
X0383638Y0177613D01*
X0383589Y0177467D01*
X0383536Y0177323D01*
X0383480Y0177181D01*
X0383420Y0177040D01*
X0383356Y0176900D01*
X0383289Y0176762D01*
X0383218Y0176626D01*
X0383143Y0176492D01*
X0383066Y0176360D01*
X0382984Y0176230D01*
X0382900Y0176102D01*
X0382812Y0175976D01*
X0382721Y0175853D01*
X0382627Y0175732D01*
X0382529Y0175614D01*
X0382429Y0175498D01*
X0382325Y0175385D01*
X0382219Y0175274D01*
X0382110Y0175166D01*
X0381998Y0175061D01*
X0381884Y0174960D01*
X0381766Y0174861D01*
X0381647Y0174765D01*
X0381525Y0174672D01*
X0381400Y0174583D01*
X0381273Y0174496D01*
X0381144Y0174414D01*
X0381013Y0174334D01*
X0380880Y0174258D01*
X0380745Y0174185D01*
X0380608Y0174116D01*
X0380469Y0174051D01*
X0380329Y0173989D01*
X0380187Y0173931D01*
X0380044Y0173876D01*
X0379899Y0173825D01*
X0379753Y0173778D01*
X0379606Y0173735D01*
X0379458Y0173696D01*
X0379309Y0173660D01*
X0379159Y0173629D01*
X0379008Y0173601D01*
X0378857Y0173577D01*
X0378704Y0173557D01*
X0378552Y0173541D01*
X0378399Y0173529D01*
X0378246Y0173521D01*
X0378093Y0173517D01*
X0377939Y0173517D01*
X0377786Y0173521D01*
X0377633Y0173529D01*
X0377480Y0173541D01*
X0377328Y0173557D01*
X0377175Y0173577D01*
X0377024Y0173601D01*
X0376873Y0173629D01*
X0376723Y0173660D01*
X0376574Y0173696D01*
X0376426Y0173735D01*
X0376279Y0173778D01*
X0376133Y0173825D01*
X0375988Y0173876D01*
X0375845Y0173931D01*
X0375703Y0173989D01*
X0375563Y0174051D01*
X0375424Y0174116D01*
X0375287Y0174185D01*
X0375152Y0174258D01*
X0375019Y0174334D01*
X0374888Y0174414D01*
X0374759Y0174496D01*
X0374632Y0174583D01*
X0374507Y0174672D01*
X0374385Y0174765D01*
X0374266Y0174861D01*
X0374148Y0174960D01*
X0374034Y0175061D01*
X0373922Y0175166D01*
X0373813Y0175274D01*
X0373707Y0175385D01*
X0373603Y0175498D01*
X0373503Y0175614D01*
X0373405Y0175732D01*
X0373311Y0175853D01*
X0373220Y0175976D01*
X0373132Y0176102D01*
X0373048Y0176230D01*
X0372966Y0176360D01*
X0372889Y0176492D01*
X0372814Y0176626D01*
X0372743Y0176762D01*
X0372676Y0176900D01*
X0372612Y0177040D01*
X0372552Y0177181D01*
X0372496Y0177323D01*
X0372443Y0177467D01*
X0372394Y0177613D01*
X0372349Y0177759D01*
X0372308Y0177907D01*
X0372271Y0178055D01*
X0372237Y0178205D01*
X0372207Y0178356D01*
X0372182Y0178507D01*
X0372160Y0178658D01*
X0372142Y0178811D01*
X0372128Y0178963D01*
X0372118Y0179116D01*
X0372112Y0179270D01*
X0372110Y0179423D01*
X0372110Y0021943D02*
X0372112Y0022096D01*
X0372118Y0022250D01*
X0372128Y0022403D01*
X0372142Y0022555D01*
X0372160Y0022708D01*
X0372182Y0022859D01*
X0372207Y0023010D01*
X0372237Y0023161D01*
X0372271Y0023311D01*
X0372308Y0023459D01*
X0372349Y0023607D01*
X0372394Y0023753D01*
X0372443Y0023899D01*
X0372496Y0024043D01*
X0372552Y0024185D01*
X0372612Y0024326D01*
X0372676Y0024466D01*
X0372743Y0024604D01*
X0372814Y0024740D01*
X0372889Y0024874D01*
X0372966Y0025006D01*
X0373048Y0025136D01*
X0373132Y0025264D01*
X0373220Y0025390D01*
X0373311Y0025513D01*
X0373405Y0025634D01*
X0373503Y0025752D01*
X0373603Y0025868D01*
X0373707Y0025981D01*
X0373813Y0026092D01*
X0373922Y0026200D01*
X0374034Y0026305D01*
X0374148Y0026406D01*
X0374266Y0026505D01*
X0374385Y0026601D01*
X0374507Y0026694D01*
X0374632Y0026783D01*
X0374759Y0026870D01*
X0374888Y0026952D01*
X0375019Y0027032D01*
X0375152Y0027108D01*
X0375287Y0027181D01*
X0375424Y0027250D01*
X0375563Y0027315D01*
X0375703Y0027377D01*
X0375845Y0027435D01*
X0375988Y0027490D01*
X0376133Y0027541D01*
X0376279Y0027588D01*
X0376426Y0027631D01*
X0376574Y0027670D01*
X0376723Y0027706D01*
X0376873Y0027737D01*
X0377024Y0027765D01*
X0377175Y0027789D01*
X0377328Y0027809D01*
X0377480Y0027825D01*
X0377633Y0027837D01*
X0377786Y0027845D01*
X0377939Y0027849D01*
X0378093Y0027849D01*
X0378246Y0027845D01*
X0378399Y0027837D01*
X0378552Y0027825D01*
X0378704Y0027809D01*
X0378857Y0027789D01*
X0379008Y0027765D01*
X0379159Y0027737D01*
X0379309Y0027706D01*
X0379458Y0027670D01*
X0379606Y0027631D01*
X0379753Y0027588D01*
X0379899Y0027541D01*
X0380044Y0027490D01*
X0380187Y0027435D01*
X0380329Y0027377D01*
X0380469Y0027315D01*
X0380608Y0027250D01*
X0380745Y0027181D01*
X0380880Y0027108D01*
X0381013Y0027032D01*
X0381144Y0026952D01*
X0381273Y0026870D01*
X0381400Y0026783D01*
X0381525Y0026694D01*
X0381647Y0026601D01*
X0381766Y0026505D01*
X0381884Y0026406D01*
X0381998Y0026305D01*
X0382110Y0026200D01*
X0382219Y0026092D01*
X0382325Y0025981D01*
X0382429Y0025868D01*
X0382529Y0025752D01*
X0382627Y0025634D01*
X0382721Y0025513D01*
X0382812Y0025390D01*
X0382900Y0025264D01*
X0382984Y0025136D01*
X0383066Y0025006D01*
X0383143Y0024874D01*
X0383218Y0024740D01*
X0383289Y0024604D01*
X0383356Y0024466D01*
X0383420Y0024326D01*
X0383480Y0024185D01*
X0383536Y0024043D01*
X0383589Y0023899D01*
X0383638Y0023753D01*
X0383683Y0023607D01*
X0383724Y0023459D01*
X0383761Y0023311D01*
X0383795Y0023161D01*
X0383825Y0023010D01*
X0383850Y0022859D01*
X0383872Y0022708D01*
X0383890Y0022555D01*
X0383904Y0022403D01*
X0383914Y0022250D01*
X0383920Y0022096D01*
X0383922Y0021943D01*
X0383920Y0021790D01*
X0383914Y0021636D01*
X0383904Y0021483D01*
X0383890Y0021331D01*
X0383872Y0021178D01*
X0383850Y0021027D01*
X0383825Y0020876D01*
X0383795Y0020725D01*
X0383761Y0020575D01*
X0383724Y0020427D01*
X0383683Y0020279D01*
X0383638Y0020133D01*
X0383589Y0019987D01*
X0383536Y0019843D01*
X0383480Y0019701D01*
X0383420Y0019560D01*
X0383356Y0019420D01*
X0383289Y0019282D01*
X0383218Y0019146D01*
X0383143Y0019012D01*
X0383066Y0018880D01*
X0382984Y0018750D01*
X0382900Y0018622D01*
X0382812Y0018496D01*
X0382721Y0018373D01*
X0382627Y0018252D01*
X0382529Y0018134D01*
X0382429Y0018018D01*
X0382325Y0017905D01*
X0382219Y0017794D01*
X0382110Y0017686D01*
X0381998Y0017581D01*
X0381884Y0017480D01*
X0381766Y0017381D01*
X0381647Y0017285D01*
X0381525Y0017192D01*
X0381400Y0017103D01*
X0381273Y0017016D01*
X0381144Y0016934D01*
X0381013Y0016854D01*
X0380880Y0016778D01*
X0380745Y0016705D01*
X0380608Y0016636D01*
X0380469Y0016571D01*
X0380329Y0016509D01*
X0380187Y0016451D01*
X0380044Y0016396D01*
X0379899Y0016345D01*
X0379753Y0016298D01*
X0379606Y0016255D01*
X0379458Y0016216D01*
X0379309Y0016180D01*
X0379159Y0016149D01*
X0379008Y0016121D01*
X0378857Y0016097D01*
X0378704Y0016077D01*
X0378552Y0016061D01*
X0378399Y0016049D01*
X0378246Y0016041D01*
X0378093Y0016037D01*
X0377939Y0016037D01*
X0377786Y0016041D01*
X0377633Y0016049D01*
X0377480Y0016061D01*
X0377328Y0016077D01*
X0377175Y0016097D01*
X0377024Y0016121D01*
X0376873Y0016149D01*
X0376723Y0016180D01*
X0376574Y0016216D01*
X0376426Y0016255D01*
X0376279Y0016298D01*
X0376133Y0016345D01*
X0375988Y0016396D01*
X0375845Y0016451D01*
X0375703Y0016509D01*
X0375563Y0016571D01*
X0375424Y0016636D01*
X0375287Y0016705D01*
X0375152Y0016778D01*
X0375019Y0016854D01*
X0374888Y0016934D01*
X0374759Y0017016D01*
X0374632Y0017103D01*
X0374507Y0017192D01*
X0374385Y0017285D01*
X0374266Y0017381D01*
X0374148Y0017480D01*
X0374034Y0017581D01*
X0373922Y0017686D01*
X0373813Y0017794D01*
X0373707Y0017905D01*
X0373603Y0018018D01*
X0373503Y0018134D01*
X0373405Y0018252D01*
X0373311Y0018373D01*
X0373220Y0018496D01*
X0373132Y0018622D01*
X0373048Y0018750D01*
X0372966Y0018880D01*
X0372889Y0019012D01*
X0372814Y0019146D01*
X0372743Y0019282D01*
X0372676Y0019420D01*
X0372612Y0019560D01*
X0372552Y0019701D01*
X0372496Y0019843D01*
X0372443Y0019987D01*
X0372394Y0020133D01*
X0372349Y0020279D01*
X0372308Y0020427D01*
X0372271Y0020575D01*
X0372237Y0020725D01*
X0372207Y0020876D01*
X0372182Y0021027D01*
X0372160Y0021178D01*
X0372142Y0021331D01*
X0372128Y0021483D01*
X0372118Y0021636D01*
X0372112Y0021790D01*
X0372110Y0021943D01*
M02*
