%
M48
M72
T01C0.0120
T02C0.0276
T03C0.0320
T04C0.0400
T05C0.0433
T06C0.0512
T07C0.0787
T08C0.1181
%
T01
X12040Y5326
X12040Y5926
X11740Y22606
X19480Y22966
X22360Y22906
X26680Y20086
X25120Y19906
X26980Y18346
X25240Y18226
X30160Y17206
X34180Y19606
X35200Y23566
X28180Y22966
X19960Y19846
X28660Y14146
X29560Y9586
X26800Y6946
X27400Y4906
X25840Y4846
T02
X15470Y22558
X15785Y23070
X16100Y22558
X16730Y22558
X16415Y23070
T03
X14286Y1210
X13286Y1210
X12514Y2982
X11514Y2982
X9900Y3226
X8900Y3226
X8900Y1726
X9900Y1726
X9900Y4726
X8900Y4726
X8900Y6226
X9900Y6226
X9900Y7726
X8900Y7726
X8900Y9226
X9900Y9226
X9900Y10726
X8900Y10726
X8900Y12226
X9900Y12226
X9900Y13726
X8900Y13726
X8900Y15226
X9900Y15226
X11585Y15450
X11585Y16450
X9900Y16726
X8900Y16726
X13896Y17531
X13896Y18531
X16096Y18712
X16096Y19712
X16720Y20969
X17720Y20969
X17790Y19712
X17790Y18712
X14680Y20501
X13680Y20501
X19298Y24332
X20766Y24241
X21766Y24241
X22900Y23726
X23900Y23726
X23735Y25226
X22735Y25226
X19298Y25332
X22888Y21848
X23888Y21848
X25497Y22029
X25497Y21029
X23654Y20293
X22654Y20293
X22654Y19127
X23654Y19127
X25843Y19606
X26843Y19606
X26333Y16983
X26333Y15983
X26311Y14558
X26311Y13558
X26303Y12435
X26303Y11435
X28300Y10332
X28300Y9332
X30270Y9226
X31270Y9226
X31270Y10726
X30270Y10726
X30270Y12226
X31270Y12226
X31270Y13726
X30270Y13726
X28573Y13145
X27573Y13145
X27618Y14600
X28618Y14600
X30270Y15226
X31270Y15226
X31270Y16726
X30270Y16726
X35491Y21916
X35491Y22916
X31270Y7726
X30270Y7726
X30270Y6226
X31270Y6226
X31270Y4726
X30270Y4726
X30270Y3226
X31270Y3226
X31270Y1726
X30270Y1726
X28164Y2785
X27164Y2785
X14081Y8387
X14081Y9387
X13969Y10460
X12455Y10676
X11455Y10676
X12009Y9248
X12009Y8248
X13969Y11460
X11880Y12123
X11880Y13123
X6396Y20501
X7396Y20501
T04
X5650Y1726
X6650Y1726
X7650Y1726
X7650Y3226
X6650Y3226
X5650Y3226
X5650Y4726
X6650Y4726
X7650Y4726
X7650Y6226
X6650Y6226
X5650Y6226
X5650Y7726
X6650Y7726
X7650Y7726
X7650Y9226
X6650Y9226
X5650Y9226
X5650Y10726
X6650Y10726
X7650Y10726
X7650Y12226
X6650Y12226
X5650Y12226
X5650Y13726
X6650Y13726
X7650Y13726
X7650Y15226
X6650Y15226
X5650Y15226
X5650Y16726
X6650Y16726
X7650Y16726
X6593Y18072
X6593Y19072
X5035Y19013
X5035Y18013
X6506Y22016
X6506Y23016
X6506Y24016
X6506Y25016
X12406Y25016
X12406Y24016
X12406Y23016
X12406Y22016
X12406Y21016
X11243Y18911
X10243Y18911
X9243Y18911
X13865Y15166
X13865Y14166
X13865Y13166
X26081Y8493
X27081Y8493
X32520Y9226
X33520Y9226
X34520Y9226
X34520Y10726
X33520Y10726
X32520Y10726
X32520Y12226
X33520Y12226
X34520Y12226
X34520Y13726
X33520Y13726
X32520Y13726
X32520Y15226
X33520Y15226
X34520Y15226
X34520Y16726
X33520Y16726
X32520Y16726
X36482Y21858
X36482Y23638
X39042Y23638
X39042Y21858
X26491Y23741
X25491Y23741
X25491Y24741
X26491Y24741
X32520Y7726
X33520Y7726
X34520Y7726
X34520Y6226
X33520Y6226
X32520Y6226
X32520Y4726
X33520Y4726
X34520Y4726
X34520Y3226
X33520Y3226
X32520Y3226
X32520Y1726
X33520Y1726
X34520Y1726
T05
X2506Y21226
X3506Y21226
X4506Y21226
X4506Y23832
X3506Y23832
X2506Y23832
T06
X1805Y13222
X3805Y13222
T07
X14525Y23030
X14525Y24881
X17675Y24881
X17675Y23030
T08
X2369Y2194
X2369Y17942
X37802Y17942
X37802Y2194
M30
