G75*
%MOIN*%
%OFA0B0*%
%FSLAX25Y25*%
%IPPOS*%
%LPD*%
%AMOC8*
5,1,8,0,0,1.08239X$1,22.5*
%
%ADD10C,0.00000*%
%ADD11OC8,0.05200*%
%ADD12OC8,0.06200*%
%ADD13C,0.06200*%
%ADD14C,0.15000*%
%ADD15C,0.12598*%
%ADD16C,0.04756*%
%ADD17R,0.05846X0.03543*%
%ADD18R,0.05906X0.01575*%
%ADD19C,0.06000*%
%ADD20C,0.06496*%
%ADD21R,0.05512X0.03937*%
%ADD22R,0.03937X0.05512*%
%ADD23R,0.03900X0.01200*%
%ADD24C,0.07874*%
%ADD25R,0.05512X0.11024*%
%ADD26R,0.05512X0.04724*%
%ADD27OC8,0.06000*%
%ADD28C,0.00600*%
%ADD29C,0.02400*%
D10*
X0004000Y0002257D02*
X0151638Y0002257D01*
X0151638Y0179423D01*
X0250063Y0179423D01*
X0250063Y0002257D01*
X0397701Y0002257D01*
X0397701Y0258163D01*
X0004000Y0258163D01*
X0004000Y0002257D01*
X0017779Y0021943D02*
X0017781Y0022096D01*
X0017787Y0022250D01*
X0017797Y0022403D01*
X0017811Y0022555D01*
X0017829Y0022708D01*
X0017851Y0022859D01*
X0017876Y0023010D01*
X0017906Y0023161D01*
X0017940Y0023311D01*
X0017977Y0023459D01*
X0018018Y0023607D01*
X0018063Y0023753D01*
X0018112Y0023899D01*
X0018165Y0024043D01*
X0018221Y0024185D01*
X0018281Y0024326D01*
X0018345Y0024466D01*
X0018412Y0024604D01*
X0018483Y0024740D01*
X0018558Y0024874D01*
X0018635Y0025006D01*
X0018717Y0025136D01*
X0018801Y0025264D01*
X0018889Y0025390D01*
X0018980Y0025513D01*
X0019074Y0025634D01*
X0019172Y0025752D01*
X0019272Y0025868D01*
X0019376Y0025981D01*
X0019482Y0026092D01*
X0019591Y0026200D01*
X0019703Y0026305D01*
X0019817Y0026406D01*
X0019935Y0026505D01*
X0020054Y0026601D01*
X0020176Y0026694D01*
X0020301Y0026783D01*
X0020428Y0026870D01*
X0020557Y0026952D01*
X0020688Y0027032D01*
X0020821Y0027108D01*
X0020956Y0027181D01*
X0021093Y0027250D01*
X0021232Y0027315D01*
X0021372Y0027377D01*
X0021514Y0027435D01*
X0021657Y0027490D01*
X0021802Y0027541D01*
X0021948Y0027588D01*
X0022095Y0027631D01*
X0022243Y0027670D01*
X0022392Y0027706D01*
X0022542Y0027737D01*
X0022693Y0027765D01*
X0022844Y0027789D01*
X0022997Y0027809D01*
X0023149Y0027825D01*
X0023302Y0027837D01*
X0023455Y0027845D01*
X0023608Y0027849D01*
X0023762Y0027849D01*
X0023915Y0027845D01*
X0024068Y0027837D01*
X0024221Y0027825D01*
X0024373Y0027809D01*
X0024526Y0027789D01*
X0024677Y0027765D01*
X0024828Y0027737D01*
X0024978Y0027706D01*
X0025127Y0027670D01*
X0025275Y0027631D01*
X0025422Y0027588D01*
X0025568Y0027541D01*
X0025713Y0027490D01*
X0025856Y0027435D01*
X0025998Y0027377D01*
X0026138Y0027315D01*
X0026277Y0027250D01*
X0026414Y0027181D01*
X0026549Y0027108D01*
X0026682Y0027032D01*
X0026813Y0026952D01*
X0026942Y0026870D01*
X0027069Y0026783D01*
X0027194Y0026694D01*
X0027316Y0026601D01*
X0027435Y0026505D01*
X0027553Y0026406D01*
X0027667Y0026305D01*
X0027779Y0026200D01*
X0027888Y0026092D01*
X0027994Y0025981D01*
X0028098Y0025868D01*
X0028198Y0025752D01*
X0028296Y0025634D01*
X0028390Y0025513D01*
X0028481Y0025390D01*
X0028569Y0025264D01*
X0028653Y0025136D01*
X0028735Y0025006D01*
X0028812Y0024874D01*
X0028887Y0024740D01*
X0028958Y0024604D01*
X0029025Y0024466D01*
X0029089Y0024326D01*
X0029149Y0024185D01*
X0029205Y0024043D01*
X0029258Y0023899D01*
X0029307Y0023753D01*
X0029352Y0023607D01*
X0029393Y0023459D01*
X0029430Y0023311D01*
X0029464Y0023161D01*
X0029494Y0023010D01*
X0029519Y0022859D01*
X0029541Y0022708D01*
X0029559Y0022555D01*
X0029573Y0022403D01*
X0029583Y0022250D01*
X0029589Y0022096D01*
X0029591Y0021943D01*
X0029589Y0021790D01*
X0029583Y0021636D01*
X0029573Y0021483D01*
X0029559Y0021331D01*
X0029541Y0021178D01*
X0029519Y0021027D01*
X0029494Y0020876D01*
X0029464Y0020725D01*
X0029430Y0020575D01*
X0029393Y0020427D01*
X0029352Y0020279D01*
X0029307Y0020133D01*
X0029258Y0019987D01*
X0029205Y0019843D01*
X0029149Y0019701D01*
X0029089Y0019560D01*
X0029025Y0019420D01*
X0028958Y0019282D01*
X0028887Y0019146D01*
X0028812Y0019012D01*
X0028735Y0018880D01*
X0028653Y0018750D01*
X0028569Y0018622D01*
X0028481Y0018496D01*
X0028390Y0018373D01*
X0028296Y0018252D01*
X0028198Y0018134D01*
X0028098Y0018018D01*
X0027994Y0017905D01*
X0027888Y0017794D01*
X0027779Y0017686D01*
X0027667Y0017581D01*
X0027553Y0017480D01*
X0027435Y0017381D01*
X0027316Y0017285D01*
X0027194Y0017192D01*
X0027069Y0017103D01*
X0026942Y0017016D01*
X0026813Y0016934D01*
X0026682Y0016854D01*
X0026549Y0016778D01*
X0026414Y0016705D01*
X0026277Y0016636D01*
X0026138Y0016571D01*
X0025998Y0016509D01*
X0025856Y0016451D01*
X0025713Y0016396D01*
X0025568Y0016345D01*
X0025422Y0016298D01*
X0025275Y0016255D01*
X0025127Y0016216D01*
X0024978Y0016180D01*
X0024828Y0016149D01*
X0024677Y0016121D01*
X0024526Y0016097D01*
X0024373Y0016077D01*
X0024221Y0016061D01*
X0024068Y0016049D01*
X0023915Y0016041D01*
X0023762Y0016037D01*
X0023608Y0016037D01*
X0023455Y0016041D01*
X0023302Y0016049D01*
X0023149Y0016061D01*
X0022997Y0016077D01*
X0022844Y0016097D01*
X0022693Y0016121D01*
X0022542Y0016149D01*
X0022392Y0016180D01*
X0022243Y0016216D01*
X0022095Y0016255D01*
X0021948Y0016298D01*
X0021802Y0016345D01*
X0021657Y0016396D01*
X0021514Y0016451D01*
X0021372Y0016509D01*
X0021232Y0016571D01*
X0021093Y0016636D01*
X0020956Y0016705D01*
X0020821Y0016778D01*
X0020688Y0016854D01*
X0020557Y0016934D01*
X0020428Y0017016D01*
X0020301Y0017103D01*
X0020176Y0017192D01*
X0020054Y0017285D01*
X0019935Y0017381D01*
X0019817Y0017480D01*
X0019703Y0017581D01*
X0019591Y0017686D01*
X0019482Y0017794D01*
X0019376Y0017905D01*
X0019272Y0018018D01*
X0019172Y0018134D01*
X0019074Y0018252D01*
X0018980Y0018373D01*
X0018889Y0018496D01*
X0018801Y0018622D01*
X0018717Y0018750D01*
X0018635Y0018880D01*
X0018558Y0019012D01*
X0018483Y0019146D01*
X0018412Y0019282D01*
X0018345Y0019420D01*
X0018281Y0019560D01*
X0018221Y0019701D01*
X0018165Y0019843D01*
X0018112Y0019987D01*
X0018063Y0020133D01*
X0018018Y0020279D01*
X0017977Y0020427D01*
X0017940Y0020575D01*
X0017906Y0020725D01*
X0017876Y0020876D01*
X0017851Y0021027D01*
X0017829Y0021178D01*
X0017811Y0021331D01*
X0017797Y0021483D01*
X0017787Y0021636D01*
X0017781Y0021790D01*
X0017779Y0021943D01*
X0017779Y0179423D02*
X0017781Y0179576D01*
X0017787Y0179730D01*
X0017797Y0179883D01*
X0017811Y0180035D01*
X0017829Y0180188D01*
X0017851Y0180339D01*
X0017876Y0180490D01*
X0017906Y0180641D01*
X0017940Y0180791D01*
X0017977Y0180939D01*
X0018018Y0181087D01*
X0018063Y0181233D01*
X0018112Y0181379D01*
X0018165Y0181523D01*
X0018221Y0181665D01*
X0018281Y0181806D01*
X0018345Y0181946D01*
X0018412Y0182084D01*
X0018483Y0182220D01*
X0018558Y0182354D01*
X0018635Y0182486D01*
X0018717Y0182616D01*
X0018801Y0182744D01*
X0018889Y0182870D01*
X0018980Y0182993D01*
X0019074Y0183114D01*
X0019172Y0183232D01*
X0019272Y0183348D01*
X0019376Y0183461D01*
X0019482Y0183572D01*
X0019591Y0183680D01*
X0019703Y0183785D01*
X0019817Y0183886D01*
X0019935Y0183985D01*
X0020054Y0184081D01*
X0020176Y0184174D01*
X0020301Y0184263D01*
X0020428Y0184350D01*
X0020557Y0184432D01*
X0020688Y0184512D01*
X0020821Y0184588D01*
X0020956Y0184661D01*
X0021093Y0184730D01*
X0021232Y0184795D01*
X0021372Y0184857D01*
X0021514Y0184915D01*
X0021657Y0184970D01*
X0021802Y0185021D01*
X0021948Y0185068D01*
X0022095Y0185111D01*
X0022243Y0185150D01*
X0022392Y0185186D01*
X0022542Y0185217D01*
X0022693Y0185245D01*
X0022844Y0185269D01*
X0022997Y0185289D01*
X0023149Y0185305D01*
X0023302Y0185317D01*
X0023455Y0185325D01*
X0023608Y0185329D01*
X0023762Y0185329D01*
X0023915Y0185325D01*
X0024068Y0185317D01*
X0024221Y0185305D01*
X0024373Y0185289D01*
X0024526Y0185269D01*
X0024677Y0185245D01*
X0024828Y0185217D01*
X0024978Y0185186D01*
X0025127Y0185150D01*
X0025275Y0185111D01*
X0025422Y0185068D01*
X0025568Y0185021D01*
X0025713Y0184970D01*
X0025856Y0184915D01*
X0025998Y0184857D01*
X0026138Y0184795D01*
X0026277Y0184730D01*
X0026414Y0184661D01*
X0026549Y0184588D01*
X0026682Y0184512D01*
X0026813Y0184432D01*
X0026942Y0184350D01*
X0027069Y0184263D01*
X0027194Y0184174D01*
X0027316Y0184081D01*
X0027435Y0183985D01*
X0027553Y0183886D01*
X0027667Y0183785D01*
X0027779Y0183680D01*
X0027888Y0183572D01*
X0027994Y0183461D01*
X0028098Y0183348D01*
X0028198Y0183232D01*
X0028296Y0183114D01*
X0028390Y0182993D01*
X0028481Y0182870D01*
X0028569Y0182744D01*
X0028653Y0182616D01*
X0028735Y0182486D01*
X0028812Y0182354D01*
X0028887Y0182220D01*
X0028958Y0182084D01*
X0029025Y0181946D01*
X0029089Y0181806D01*
X0029149Y0181665D01*
X0029205Y0181523D01*
X0029258Y0181379D01*
X0029307Y0181233D01*
X0029352Y0181087D01*
X0029393Y0180939D01*
X0029430Y0180791D01*
X0029464Y0180641D01*
X0029494Y0180490D01*
X0029519Y0180339D01*
X0029541Y0180188D01*
X0029559Y0180035D01*
X0029573Y0179883D01*
X0029583Y0179730D01*
X0029589Y0179576D01*
X0029591Y0179423D01*
X0029589Y0179270D01*
X0029583Y0179116D01*
X0029573Y0178963D01*
X0029559Y0178811D01*
X0029541Y0178658D01*
X0029519Y0178507D01*
X0029494Y0178356D01*
X0029464Y0178205D01*
X0029430Y0178055D01*
X0029393Y0177907D01*
X0029352Y0177759D01*
X0029307Y0177613D01*
X0029258Y0177467D01*
X0029205Y0177323D01*
X0029149Y0177181D01*
X0029089Y0177040D01*
X0029025Y0176900D01*
X0028958Y0176762D01*
X0028887Y0176626D01*
X0028812Y0176492D01*
X0028735Y0176360D01*
X0028653Y0176230D01*
X0028569Y0176102D01*
X0028481Y0175976D01*
X0028390Y0175853D01*
X0028296Y0175732D01*
X0028198Y0175614D01*
X0028098Y0175498D01*
X0027994Y0175385D01*
X0027888Y0175274D01*
X0027779Y0175166D01*
X0027667Y0175061D01*
X0027553Y0174960D01*
X0027435Y0174861D01*
X0027316Y0174765D01*
X0027194Y0174672D01*
X0027069Y0174583D01*
X0026942Y0174496D01*
X0026813Y0174414D01*
X0026682Y0174334D01*
X0026549Y0174258D01*
X0026414Y0174185D01*
X0026277Y0174116D01*
X0026138Y0174051D01*
X0025998Y0173989D01*
X0025856Y0173931D01*
X0025713Y0173876D01*
X0025568Y0173825D01*
X0025422Y0173778D01*
X0025275Y0173735D01*
X0025127Y0173696D01*
X0024978Y0173660D01*
X0024828Y0173629D01*
X0024677Y0173601D01*
X0024526Y0173577D01*
X0024373Y0173557D01*
X0024221Y0173541D01*
X0024068Y0173529D01*
X0023915Y0173521D01*
X0023762Y0173517D01*
X0023608Y0173517D01*
X0023455Y0173521D01*
X0023302Y0173529D01*
X0023149Y0173541D01*
X0022997Y0173557D01*
X0022844Y0173577D01*
X0022693Y0173601D01*
X0022542Y0173629D01*
X0022392Y0173660D01*
X0022243Y0173696D01*
X0022095Y0173735D01*
X0021948Y0173778D01*
X0021802Y0173825D01*
X0021657Y0173876D01*
X0021514Y0173931D01*
X0021372Y0173989D01*
X0021232Y0174051D01*
X0021093Y0174116D01*
X0020956Y0174185D01*
X0020821Y0174258D01*
X0020688Y0174334D01*
X0020557Y0174414D01*
X0020428Y0174496D01*
X0020301Y0174583D01*
X0020176Y0174672D01*
X0020054Y0174765D01*
X0019935Y0174861D01*
X0019817Y0174960D01*
X0019703Y0175061D01*
X0019591Y0175166D01*
X0019482Y0175274D01*
X0019376Y0175385D01*
X0019272Y0175498D01*
X0019172Y0175614D01*
X0019074Y0175732D01*
X0018980Y0175853D01*
X0018889Y0175976D01*
X0018801Y0176102D01*
X0018717Y0176230D01*
X0018635Y0176360D01*
X0018558Y0176492D01*
X0018483Y0176626D01*
X0018412Y0176762D01*
X0018345Y0176900D01*
X0018281Y0177040D01*
X0018221Y0177181D01*
X0018165Y0177323D01*
X0018112Y0177467D01*
X0018063Y0177613D01*
X0018018Y0177759D01*
X0017977Y0177907D01*
X0017940Y0178055D01*
X0017906Y0178205D01*
X0017876Y0178356D01*
X0017851Y0178507D01*
X0017829Y0178658D01*
X0017811Y0178811D01*
X0017797Y0178963D01*
X0017787Y0179116D01*
X0017781Y0179270D01*
X0017779Y0179423D01*
X0372110Y0179423D02*
X0372112Y0179576D01*
X0372118Y0179730D01*
X0372128Y0179883D01*
X0372142Y0180035D01*
X0372160Y0180188D01*
X0372182Y0180339D01*
X0372207Y0180490D01*
X0372237Y0180641D01*
X0372271Y0180791D01*
X0372308Y0180939D01*
X0372349Y0181087D01*
X0372394Y0181233D01*
X0372443Y0181379D01*
X0372496Y0181523D01*
X0372552Y0181665D01*
X0372612Y0181806D01*
X0372676Y0181946D01*
X0372743Y0182084D01*
X0372814Y0182220D01*
X0372889Y0182354D01*
X0372966Y0182486D01*
X0373048Y0182616D01*
X0373132Y0182744D01*
X0373220Y0182870D01*
X0373311Y0182993D01*
X0373405Y0183114D01*
X0373503Y0183232D01*
X0373603Y0183348D01*
X0373707Y0183461D01*
X0373813Y0183572D01*
X0373922Y0183680D01*
X0374034Y0183785D01*
X0374148Y0183886D01*
X0374266Y0183985D01*
X0374385Y0184081D01*
X0374507Y0184174D01*
X0374632Y0184263D01*
X0374759Y0184350D01*
X0374888Y0184432D01*
X0375019Y0184512D01*
X0375152Y0184588D01*
X0375287Y0184661D01*
X0375424Y0184730D01*
X0375563Y0184795D01*
X0375703Y0184857D01*
X0375845Y0184915D01*
X0375988Y0184970D01*
X0376133Y0185021D01*
X0376279Y0185068D01*
X0376426Y0185111D01*
X0376574Y0185150D01*
X0376723Y0185186D01*
X0376873Y0185217D01*
X0377024Y0185245D01*
X0377175Y0185269D01*
X0377328Y0185289D01*
X0377480Y0185305D01*
X0377633Y0185317D01*
X0377786Y0185325D01*
X0377939Y0185329D01*
X0378093Y0185329D01*
X0378246Y0185325D01*
X0378399Y0185317D01*
X0378552Y0185305D01*
X0378704Y0185289D01*
X0378857Y0185269D01*
X0379008Y0185245D01*
X0379159Y0185217D01*
X0379309Y0185186D01*
X0379458Y0185150D01*
X0379606Y0185111D01*
X0379753Y0185068D01*
X0379899Y0185021D01*
X0380044Y0184970D01*
X0380187Y0184915D01*
X0380329Y0184857D01*
X0380469Y0184795D01*
X0380608Y0184730D01*
X0380745Y0184661D01*
X0380880Y0184588D01*
X0381013Y0184512D01*
X0381144Y0184432D01*
X0381273Y0184350D01*
X0381400Y0184263D01*
X0381525Y0184174D01*
X0381647Y0184081D01*
X0381766Y0183985D01*
X0381884Y0183886D01*
X0381998Y0183785D01*
X0382110Y0183680D01*
X0382219Y0183572D01*
X0382325Y0183461D01*
X0382429Y0183348D01*
X0382529Y0183232D01*
X0382627Y0183114D01*
X0382721Y0182993D01*
X0382812Y0182870D01*
X0382900Y0182744D01*
X0382984Y0182616D01*
X0383066Y0182486D01*
X0383143Y0182354D01*
X0383218Y0182220D01*
X0383289Y0182084D01*
X0383356Y0181946D01*
X0383420Y0181806D01*
X0383480Y0181665D01*
X0383536Y0181523D01*
X0383589Y0181379D01*
X0383638Y0181233D01*
X0383683Y0181087D01*
X0383724Y0180939D01*
X0383761Y0180791D01*
X0383795Y0180641D01*
X0383825Y0180490D01*
X0383850Y0180339D01*
X0383872Y0180188D01*
X0383890Y0180035D01*
X0383904Y0179883D01*
X0383914Y0179730D01*
X0383920Y0179576D01*
X0383922Y0179423D01*
X0383920Y0179270D01*
X0383914Y0179116D01*
X0383904Y0178963D01*
X0383890Y0178811D01*
X0383872Y0178658D01*
X0383850Y0178507D01*
X0383825Y0178356D01*
X0383795Y0178205D01*
X0383761Y0178055D01*
X0383724Y0177907D01*
X0383683Y0177759D01*
X0383638Y0177613D01*
X0383589Y0177467D01*
X0383536Y0177323D01*
X0383480Y0177181D01*
X0383420Y0177040D01*
X0383356Y0176900D01*
X0383289Y0176762D01*
X0383218Y0176626D01*
X0383143Y0176492D01*
X0383066Y0176360D01*
X0382984Y0176230D01*
X0382900Y0176102D01*
X0382812Y0175976D01*
X0382721Y0175853D01*
X0382627Y0175732D01*
X0382529Y0175614D01*
X0382429Y0175498D01*
X0382325Y0175385D01*
X0382219Y0175274D01*
X0382110Y0175166D01*
X0381998Y0175061D01*
X0381884Y0174960D01*
X0381766Y0174861D01*
X0381647Y0174765D01*
X0381525Y0174672D01*
X0381400Y0174583D01*
X0381273Y0174496D01*
X0381144Y0174414D01*
X0381013Y0174334D01*
X0380880Y0174258D01*
X0380745Y0174185D01*
X0380608Y0174116D01*
X0380469Y0174051D01*
X0380329Y0173989D01*
X0380187Y0173931D01*
X0380044Y0173876D01*
X0379899Y0173825D01*
X0379753Y0173778D01*
X0379606Y0173735D01*
X0379458Y0173696D01*
X0379309Y0173660D01*
X0379159Y0173629D01*
X0379008Y0173601D01*
X0378857Y0173577D01*
X0378704Y0173557D01*
X0378552Y0173541D01*
X0378399Y0173529D01*
X0378246Y0173521D01*
X0378093Y0173517D01*
X0377939Y0173517D01*
X0377786Y0173521D01*
X0377633Y0173529D01*
X0377480Y0173541D01*
X0377328Y0173557D01*
X0377175Y0173577D01*
X0377024Y0173601D01*
X0376873Y0173629D01*
X0376723Y0173660D01*
X0376574Y0173696D01*
X0376426Y0173735D01*
X0376279Y0173778D01*
X0376133Y0173825D01*
X0375988Y0173876D01*
X0375845Y0173931D01*
X0375703Y0173989D01*
X0375563Y0174051D01*
X0375424Y0174116D01*
X0375287Y0174185D01*
X0375152Y0174258D01*
X0375019Y0174334D01*
X0374888Y0174414D01*
X0374759Y0174496D01*
X0374632Y0174583D01*
X0374507Y0174672D01*
X0374385Y0174765D01*
X0374266Y0174861D01*
X0374148Y0174960D01*
X0374034Y0175061D01*
X0373922Y0175166D01*
X0373813Y0175274D01*
X0373707Y0175385D01*
X0373603Y0175498D01*
X0373503Y0175614D01*
X0373405Y0175732D01*
X0373311Y0175853D01*
X0373220Y0175976D01*
X0373132Y0176102D01*
X0373048Y0176230D01*
X0372966Y0176360D01*
X0372889Y0176492D01*
X0372814Y0176626D01*
X0372743Y0176762D01*
X0372676Y0176900D01*
X0372612Y0177040D01*
X0372552Y0177181D01*
X0372496Y0177323D01*
X0372443Y0177467D01*
X0372394Y0177613D01*
X0372349Y0177759D01*
X0372308Y0177907D01*
X0372271Y0178055D01*
X0372237Y0178205D01*
X0372207Y0178356D01*
X0372182Y0178507D01*
X0372160Y0178658D01*
X0372142Y0178811D01*
X0372128Y0178963D01*
X0372118Y0179116D01*
X0372112Y0179270D01*
X0372110Y0179423D01*
X0372110Y0021943D02*
X0372112Y0022096D01*
X0372118Y0022250D01*
X0372128Y0022403D01*
X0372142Y0022555D01*
X0372160Y0022708D01*
X0372182Y0022859D01*
X0372207Y0023010D01*
X0372237Y0023161D01*
X0372271Y0023311D01*
X0372308Y0023459D01*
X0372349Y0023607D01*
X0372394Y0023753D01*
X0372443Y0023899D01*
X0372496Y0024043D01*
X0372552Y0024185D01*
X0372612Y0024326D01*
X0372676Y0024466D01*
X0372743Y0024604D01*
X0372814Y0024740D01*
X0372889Y0024874D01*
X0372966Y0025006D01*
X0373048Y0025136D01*
X0373132Y0025264D01*
X0373220Y0025390D01*
X0373311Y0025513D01*
X0373405Y0025634D01*
X0373503Y0025752D01*
X0373603Y0025868D01*
X0373707Y0025981D01*
X0373813Y0026092D01*
X0373922Y0026200D01*
X0374034Y0026305D01*
X0374148Y0026406D01*
X0374266Y0026505D01*
X0374385Y0026601D01*
X0374507Y0026694D01*
X0374632Y0026783D01*
X0374759Y0026870D01*
X0374888Y0026952D01*
X0375019Y0027032D01*
X0375152Y0027108D01*
X0375287Y0027181D01*
X0375424Y0027250D01*
X0375563Y0027315D01*
X0375703Y0027377D01*
X0375845Y0027435D01*
X0375988Y0027490D01*
X0376133Y0027541D01*
X0376279Y0027588D01*
X0376426Y0027631D01*
X0376574Y0027670D01*
X0376723Y0027706D01*
X0376873Y0027737D01*
X0377024Y0027765D01*
X0377175Y0027789D01*
X0377328Y0027809D01*
X0377480Y0027825D01*
X0377633Y0027837D01*
X0377786Y0027845D01*
X0377939Y0027849D01*
X0378093Y0027849D01*
X0378246Y0027845D01*
X0378399Y0027837D01*
X0378552Y0027825D01*
X0378704Y0027809D01*
X0378857Y0027789D01*
X0379008Y0027765D01*
X0379159Y0027737D01*
X0379309Y0027706D01*
X0379458Y0027670D01*
X0379606Y0027631D01*
X0379753Y0027588D01*
X0379899Y0027541D01*
X0380044Y0027490D01*
X0380187Y0027435D01*
X0380329Y0027377D01*
X0380469Y0027315D01*
X0380608Y0027250D01*
X0380745Y0027181D01*
X0380880Y0027108D01*
X0381013Y0027032D01*
X0381144Y0026952D01*
X0381273Y0026870D01*
X0381400Y0026783D01*
X0381525Y0026694D01*
X0381647Y0026601D01*
X0381766Y0026505D01*
X0381884Y0026406D01*
X0381998Y0026305D01*
X0382110Y0026200D01*
X0382219Y0026092D01*
X0382325Y0025981D01*
X0382429Y0025868D01*
X0382529Y0025752D01*
X0382627Y0025634D01*
X0382721Y0025513D01*
X0382812Y0025390D01*
X0382900Y0025264D01*
X0382984Y0025136D01*
X0383066Y0025006D01*
X0383143Y0024874D01*
X0383218Y0024740D01*
X0383289Y0024604D01*
X0383356Y0024466D01*
X0383420Y0024326D01*
X0383480Y0024185D01*
X0383536Y0024043D01*
X0383589Y0023899D01*
X0383638Y0023753D01*
X0383683Y0023607D01*
X0383724Y0023459D01*
X0383761Y0023311D01*
X0383795Y0023161D01*
X0383825Y0023010D01*
X0383850Y0022859D01*
X0383872Y0022708D01*
X0383890Y0022555D01*
X0383904Y0022403D01*
X0383914Y0022250D01*
X0383920Y0022096D01*
X0383922Y0021943D01*
X0383920Y0021790D01*
X0383914Y0021636D01*
X0383904Y0021483D01*
X0383890Y0021331D01*
X0383872Y0021178D01*
X0383850Y0021027D01*
X0383825Y0020876D01*
X0383795Y0020725D01*
X0383761Y0020575D01*
X0383724Y0020427D01*
X0383683Y0020279D01*
X0383638Y0020133D01*
X0383589Y0019987D01*
X0383536Y0019843D01*
X0383480Y0019701D01*
X0383420Y0019560D01*
X0383356Y0019420D01*
X0383289Y0019282D01*
X0383218Y0019146D01*
X0383143Y0019012D01*
X0383066Y0018880D01*
X0382984Y0018750D01*
X0382900Y0018622D01*
X0382812Y0018496D01*
X0382721Y0018373D01*
X0382627Y0018252D01*
X0382529Y0018134D01*
X0382429Y0018018D01*
X0382325Y0017905D01*
X0382219Y0017794D01*
X0382110Y0017686D01*
X0381998Y0017581D01*
X0381884Y0017480D01*
X0381766Y0017381D01*
X0381647Y0017285D01*
X0381525Y0017192D01*
X0381400Y0017103D01*
X0381273Y0017016D01*
X0381144Y0016934D01*
X0381013Y0016854D01*
X0380880Y0016778D01*
X0380745Y0016705D01*
X0380608Y0016636D01*
X0380469Y0016571D01*
X0380329Y0016509D01*
X0380187Y0016451D01*
X0380044Y0016396D01*
X0379899Y0016345D01*
X0379753Y0016298D01*
X0379606Y0016255D01*
X0379458Y0016216D01*
X0379309Y0016180D01*
X0379159Y0016149D01*
X0379008Y0016121D01*
X0378857Y0016097D01*
X0378704Y0016077D01*
X0378552Y0016061D01*
X0378399Y0016049D01*
X0378246Y0016041D01*
X0378093Y0016037D01*
X0377939Y0016037D01*
X0377786Y0016041D01*
X0377633Y0016049D01*
X0377480Y0016061D01*
X0377328Y0016077D01*
X0377175Y0016097D01*
X0377024Y0016121D01*
X0376873Y0016149D01*
X0376723Y0016180D01*
X0376574Y0016216D01*
X0376426Y0016255D01*
X0376279Y0016298D01*
X0376133Y0016345D01*
X0375988Y0016396D01*
X0375845Y0016451D01*
X0375703Y0016509D01*
X0375563Y0016571D01*
X0375424Y0016636D01*
X0375287Y0016705D01*
X0375152Y0016778D01*
X0375019Y0016854D01*
X0374888Y0016934D01*
X0374759Y0017016D01*
X0374632Y0017103D01*
X0374507Y0017192D01*
X0374385Y0017285D01*
X0374266Y0017381D01*
X0374148Y0017480D01*
X0374034Y0017581D01*
X0373922Y0017686D01*
X0373813Y0017794D01*
X0373707Y0017905D01*
X0373603Y0018018D01*
X0373503Y0018134D01*
X0373405Y0018252D01*
X0373311Y0018373D01*
X0373220Y0018496D01*
X0373132Y0018622D01*
X0373048Y0018750D01*
X0372966Y0018880D01*
X0372889Y0019012D01*
X0372814Y0019146D01*
X0372743Y0019282D01*
X0372676Y0019420D01*
X0372612Y0019560D01*
X0372552Y0019701D01*
X0372496Y0019843D01*
X0372443Y0019987D01*
X0372394Y0020133D01*
X0372349Y0020279D01*
X0372308Y0020427D01*
X0372271Y0020575D01*
X0372237Y0020725D01*
X0372207Y0020876D01*
X0372182Y0021027D01*
X0372160Y0021178D01*
X0372142Y0021331D01*
X0372128Y0021483D01*
X0372118Y0021636D01*
X0372112Y0021790D01*
X0372110Y0021943D01*
D11*
X0312701Y0017257D03*
X0302701Y0017257D03*
X0302701Y0032257D03*
X0312701Y0032257D03*
X0312701Y0047257D03*
X0302701Y0047257D03*
X0302701Y0062257D03*
X0312701Y0062257D03*
X0312701Y0077257D03*
X0302701Y0077257D03*
X0302701Y0092257D03*
X0312701Y0092257D03*
X0312701Y0107257D03*
X0302701Y0107257D03*
X0283000Y0103320D03*
X0283000Y0093320D03*
X0263031Y0114352D03*
X0263031Y0124352D03*
X0263110Y0135580D03*
X0263110Y0145580D03*
X0276181Y0145998D03*
X0286181Y0145998D03*
X0302701Y0152257D03*
X0312701Y0152257D03*
X0312701Y0137257D03*
X0302701Y0137257D03*
X0285732Y0131446D03*
X0275732Y0131446D03*
X0302701Y0122257D03*
X0312701Y0122257D03*
X0263331Y0159832D03*
X0263331Y0169832D03*
X0236535Y0191273D03*
X0226535Y0191273D03*
X0226535Y0202927D03*
X0236535Y0202927D03*
X0254969Y0210289D03*
X0254969Y0220289D03*
X0238882Y0218478D03*
X0228882Y0218478D03*
X0229000Y0237257D03*
X0239000Y0237257D03*
X0237346Y0252257D03*
X0227346Y0252257D03*
X0217661Y0242415D03*
X0207661Y0242415D03*
X0192976Y0243320D03*
X0192976Y0253320D03*
X0177205Y0209691D03*
X0167205Y0209691D03*
X0160961Y0197116D03*
X0160961Y0187116D03*
X0177898Y0187116D03*
X0177898Y0197116D03*
X0138961Y0185313D03*
X0138961Y0175313D03*
X0099000Y0167257D03*
X0089000Y0167257D03*
X0089000Y0152257D03*
X0099000Y0152257D03*
X0099000Y0137257D03*
X0089000Y0137257D03*
X0089000Y0122257D03*
X0099000Y0122257D03*
X0099000Y0107257D03*
X0089000Y0107257D03*
X0089000Y0092257D03*
X0099000Y0092257D03*
X0114551Y0106761D03*
X0124551Y0106761D03*
X0139685Y0104604D03*
X0139685Y0114604D03*
X0140811Y0093872D03*
X0140811Y0083872D03*
X0120094Y0082478D03*
X0120094Y0092478D03*
X0099000Y0077257D03*
X0089000Y0077257D03*
X0089000Y0062257D03*
X0099000Y0062257D03*
X0099000Y0047257D03*
X0089000Y0047257D03*
X0089000Y0032257D03*
X0099000Y0032257D03*
X0115142Y0029817D03*
X0125142Y0029817D03*
X0132858Y0012100D03*
X0142858Y0012100D03*
X0099000Y0017257D03*
X0089000Y0017257D03*
X0271638Y0027848D03*
X0281638Y0027848D03*
X0302701Y0167257D03*
X0312701Y0167257D03*
X0268425Y0196061D03*
X0258425Y0196061D03*
X0354906Y0219163D03*
X0354906Y0229163D03*
X0073961Y0205013D03*
X0063961Y0205013D03*
D12*
X0115850Y0154502D03*
X0118803Y0131234D03*
X0146795Y0205013D03*
D13*
X0136795Y0205013D03*
X0115850Y0164502D03*
X0118803Y0121234D03*
D14*
X0145252Y0248809D03*
X0176748Y0248809D03*
D15*
X0176748Y0230305D03*
X0145252Y0230305D03*
D16*
X0154701Y0225580D02*
X0154701Y0220824D01*
X0161000Y0220824D02*
X0161000Y0225580D01*
X0167299Y0225580D02*
X0167299Y0220824D01*
X0164150Y0230698D02*
X0164150Y0235454D01*
X0157850Y0235454D02*
X0157850Y0230698D01*
D17*
X0276864Y0230486D03*
X0276864Y0224580D03*
X0276864Y0218675D03*
X0276864Y0212769D03*
X0276864Y0206864D03*
X0276864Y0200958D03*
X0276864Y0195053D03*
X0276864Y0189147D03*
X0276864Y0183242D03*
X0346884Y0183242D03*
X0346884Y0189147D03*
X0346884Y0195053D03*
X0346884Y0200958D03*
X0346884Y0206864D03*
X0346884Y0212769D03*
X0346884Y0218675D03*
X0346884Y0224580D03*
X0346884Y0230486D03*
D18*
X0218272Y0229364D03*
X0218272Y0231923D03*
X0218272Y0226805D03*
X0218272Y0224246D03*
X0218272Y0221687D03*
X0218272Y0219128D03*
X0218272Y0216569D03*
X0218272Y0214009D03*
X0218272Y0211450D03*
X0218272Y0208891D03*
X0218272Y0206332D03*
X0218272Y0203773D03*
X0218272Y0201214D03*
X0218272Y0198655D03*
X0189728Y0198655D03*
X0189728Y0201214D03*
X0189728Y0203773D03*
X0189728Y0206332D03*
X0189728Y0208891D03*
X0189728Y0211450D03*
X0189728Y0214009D03*
X0189728Y0216569D03*
X0189728Y0219128D03*
X0189728Y0221687D03*
X0189728Y0224246D03*
X0189728Y0226805D03*
X0189728Y0229364D03*
X0189728Y0231923D03*
D19*
X0127063Y0230163D02*
X0121063Y0230163D01*
X0121063Y0240163D02*
X0127063Y0240163D01*
X0127063Y0250163D02*
X0121063Y0250163D01*
X0121063Y0220163D02*
X0127063Y0220163D01*
X0127063Y0210163D02*
X0121063Y0210163D01*
X0112425Y0192108D02*
X0112425Y0186108D01*
X0102425Y0186108D02*
X0102425Y0192108D01*
X0092425Y0192108D02*
X0092425Y0186108D01*
X0076500Y0170257D02*
X0076500Y0164257D01*
X0066500Y0164257D02*
X0066500Y0170257D01*
X0056500Y0170257D02*
X0056500Y0164257D01*
X0056500Y0155257D02*
X0056500Y0149257D01*
X0066500Y0149257D02*
X0066500Y0155257D01*
X0076500Y0155257D02*
X0076500Y0149257D01*
X0076500Y0140257D02*
X0076500Y0134257D01*
X0076500Y0125257D02*
X0076500Y0119257D01*
X0066500Y0119257D02*
X0066500Y0125257D01*
X0056500Y0125257D02*
X0056500Y0119257D01*
X0056500Y0110257D02*
X0056500Y0104257D01*
X0066500Y0104257D02*
X0066500Y0110257D01*
X0076500Y0110257D02*
X0076500Y0104257D01*
X0076500Y0095257D02*
X0076500Y0089257D01*
X0066500Y0089257D02*
X0066500Y0095257D01*
X0056500Y0095257D02*
X0056500Y0089257D01*
X0056500Y0080257D02*
X0056500Y0074257D01*
X0066500Y0074257D02*
X0066500Y0080257D01*
X0076500Y0080257D02*
X0076500Y0074257D01*
X0076500Y0065257D02*
X0076500Y0059257D01*
X0066500Y0059257D02*
X0066500Y0065257D01*
X0056500Y0065257D02*
X0056500Y0059257D01*
X0056500Y0050257D02*
X0056500Y0044257D01*
X0066500Y0044257D02*
X0066500Y0050257D01*
X0076500Y0050257D02*
X0076500Y0044257D01*
X0076500Y0035257D02*
X0076500Y0029257D01*
X0076500Y0020257D02*
X0076500Y0014257D01*
X0066500Y0014257D02*
X0066500Y0020257D01*
X0056500Y0020257D02*
X0056500Y0014257D01*
X0056500Y0029257D02*
X0056500Y0035257D01*
X0066500Y0035257D02*
X0066500Y0029257D01*
X0135654Y0131659D02*
X0141654Y0131659D01*
X0141654Y0141659D02*
X0135654Y0141659D01*
X0135654Y0151659D02*
X0141654Y0151659D01*
X0068929Y0180722D02*
X0062929Y0180722D01*
X0053346Y0180131D02*
X0047346Y0180131D01*
X0047346Y0190131D02*
X0053346Y0190131D01*
X0062929Y0190722D02*
X0068929Y0190722D01*
X0068063Y0220163D02*
X0062063Y0220163D01*
X0062063Y0230163D02*
X0068063Y0230163D01*
X0068063Y0240163D02*
X0062063Y0240163D01*
X0062063Y0250163D02*
X0068063Y0250163D01*
X0066500Y0140257D02*
X0066500Y0134257D01*
X0056500Y0134257D02*
X0056500Y0140257D01*
X0260811Y0087935D02*
X0260811Y0081935D01*
X0270811Y0081935D02*
X0270811Y0087935D01*
X0325201Y0089257D02*
X0325201Y0095257D01*
X0335201Y0095257D02*
X0335201Y0089257D01*
X0345201Y0089257D02*
X0345201Y0095257D01*
X0345201Y0104257D02*
X0345201Y0110257D01*
X0335201Y0110257D02*
X0335201Y0104257D01*
X0325201Y0104257D02*
X0325201Y0110257D01*
X0325201Y0119257D02*
X0325201Y0125257D01*
X0335201Y0125257D02*
X0335201Y0119257D01*
X0345201Y0119257D02*
X0345201Y0125257D01*
X0345201Y0134257D02*
X0345201Y0140257D01*
X0345201Y0149257D02*
X0345201Y0155257D01*
X0335201Y0155257D02*
X0335201Y0149257D01*
X0325201Y0149257D02*
X0325201Y0155257D01*
X0325201Y0164257D02*
X0325201Y0170257D01*
X0335201Y0170257D02*
X0335201Y0164257D01*
X0345201Y0164257D02*
X0345201Y0170257D01*
X0335201Y0140257D02*
X0335201Y0134257D01*
X0325201Y0134257D02*
X0325201Y0140257D01*
X0325201Y0080257D02*
X0325201Y0074257D01*
X0335201Y0074257D02*
X0335201Y0080257D01*
X0345201Y0080257D02*
X0345201Y0074257D01*
X0345201Y0065257D02*
X0345201Y0059257D01*
X0335201Y0059257D02*
X0335201Y0065257D01*
X0325201Y0065257D02*
X0325201Y0059257D01*
X0325201Y0050257D02*
X0325201Y0044257D01*
X0335201Y0044257D02*
X0335201Y0050257D01*
X0345201Y0050257D02*
X0345201Y0044257D01*
X0345201Y0035257D02*
X0345201Y0029257D01*
X0345201Y0020257D02*
X0345201Y0014257D01*
X0335201Y0014257D02*
X0335201Y0020257D01*
X0325201Y0020257D02*
X0325201Y0014257D01*
X0325201Y0029257D02*
X0325201Y0035257D01*
X0335201Y0035257D02*
X0335201Y0029257D01*
X0361822Y0218578D02*
X0367822Y0218578D01*
X0387422Y0218578D02*
X0393422Y0218578D01*
X0393422Y0236378D02*
X0387422Y0236378D01*
X0367822Y0236378D02*
X0361822Y0236378D01*
D20*
X0045063Y0235072D02*
X0045063Y0241569D01*
X0035063Y0241569D02*
X0035063Y0235072D01*
X0025063Y0235072D02*
X0025063Y0241569D01*
X0025063Y0215506D02*
X0025063Y0209009D01*
X0035063Y0209009D02*
X0035063Y0215506D01*
X0045063Y0215506D02*
X0045063Y0209009D01*
D21*
X0263087Y0104265D03*
X0263087Y0096785D03*
X0271748Y0100525D03*
D22*
X0276323Y0112021D03*
X0283803Y0112021D03*
X0280063Y0120683D03*
D23*
X0285188Y0074143D03*
X0285188Y0071584D03*
X0285188Y0069025D03*
X0285188Y0066466D03*
X0285188Y0063907D03*
X0285188Y0061348D03*
X0285188Y0058789D03*
X0285188Y0056230D03*
X0285188Y0053671D03*
X0285188Y0051112D03*
X0285188Y0048553D03*
X0285188Y0045994D03*
X0285188Y0043435D03*
X0285188Y0040876D03*
X0262213Y0040876D03*
X0262213Y0043435D03*
X0262213Y0045994D03*
X0262213Y0048553D03*
X0262213Y0051112D03*
X0262213Y0053671D03*
X0262213Y0056230D03*
X0262213Y0058789D03*
X0262213Y0061348D03*
X0262213Y0063907D03*
X0262213Y0066466D03*
X0262213Y0069025D03*
X0262213Y0071584D03*
X0262213Y0074143D03*
X0139487Y0074143D03*
X0139487Y0071584D03*
X0139487Y0069025D03*
X0139487Y0066466D03*
X0139487Y0063907D03*
X0139487Y0061348D03*
X0139487Y0058789D03*
X0139487Y0056230D03*
X0139487Y0053671D03*
X0139487Y0051112D03*
X0139487Y0048553D03*
X0139487Y0045994D03*
X0139487Y0043435D03*
X0139487Y0040876D03*
X0116513Y0040876D03*
X0116513Y0043435D03*
X0116513Y0045994D03*
X0116513Y0048553D03*
X0116513Y0051112D03*
X0116513Y0053671D03*
X0116513Y0056230D03*
X0116513Y0058789D03*
X0116513Y0061348D03*
X0116513Y0063907D03*
X0116513Y0066466D03*
X0116513Y0069025D03*
X0116513Y0071584D03*
X0116513Y0074143D03*
D24*
X0038052Y0132222D03*
X0018052Y0132222D03*
D25*
X0123291Y0012100D03*
X0290614Y0165643D03*
D26*
X0280378Y0161313D03*
X0280378Y0169974D03*
X0113055Y0016431D03*
X0113055Y0007769D03*
D27*
X0254906Y0237415D03*
X0264906Y0237415D03*
X0264906Y0247415D03*
X0254906Y0247415D03*
D28*
X0255400Y0247057D01*
X0259000Y0243457D01*
X0259000Y0235657D01*
X0251200Y0227857D01*
X0251200Y0208657D01*
X0253600Y0206257D01*
X0256000Y0206257D01*
X0265600Y0215857D01*
X0280000Y0215857D01*
X0281200Y0214657D01*
X0281200Y0211057D01*
X0280000Y0209857D01*
X0279400Y0209857D01*
X0277000Y0207457D01*
X0276864Y0206864D01*
X0276400Y0212257D02*
X0276864Y0212769D01*
X0276400Y0212257D02*
X0263800Y0212257D01*
X0256600Y0205057D01*
X0253000Y0205057D01*
X0250000Y0208057D01*
X0250000Y0232057D01*
X0254800Y0236857D01*
X0254906Y0237415D01*
X0248800Y0232657D02*
X0248800Y0190657D01*
X0258400Y0181057D01*
X0258400Y0128857D01*
X0262600Y0124657D01*
X0263031Y0124352D01*
X0263200Y0124057D01*
X0266800Y0120457D01*
X0266800Y0099457D01*
X0269200Y0097057D01*
X0281800Y0097057D01*
X0286600Y0101857D01*
X0286600Y0104857D01*
X0284200Y0107257D01*
X0284200Y0111457D01*
X0283803Y0112021D01*
X0287800Y0114457D02*
X0286000Y0116257D01*
X0272200Y0116257D01*
X0272200Y0100657D01*
X0271748Y0100525D01*
X0268000Y0096457D02*
X0271000Y0093457D01*
X0283000Y0093457D01*
X0283000Y0093320D01*
X0287800Y0092857D02*
X0287800Y0114457D01*
X0280600Y0121057D02*
X0280063Y0120683D01*
X0280600Y0121057D02*
X0299200Y0139657D01*
X0299200Y0172657D01*
X0318400Y0191857D01*
X0329800Y0191857D01*
X0341800Y0203857D01*
X0350200Y0203857D01*
X0354400Y0208057D01*
X0354400Y0218857D01*
X0354906Y0219163D01*
X0355000Y0218857D01*
X0364600Y0218857D01*
X0364822Y0218578D01*
X0371800Y0220657D02*
X0371800Y0213457D01*
X0350200Y0191857D01*
X0349600Y0191857D01*
X0347200Y0189457D01*
X0346884Y0189147D01*
X0343600Y0186457D02*
X0343000Y0187057D01*
X0343000Y0191257D01*
X0346600Y0194857D01*
X0346884Y0195053D01*
X0341800Y0196057D02*
X0346600Y0200857D01*
X0346884Y0200958D01*
X0343000Y0205057D02*
X0341800Y0203857D01*
X0343000Y0205057D02*
X0343000Y0209257D01*
X0346600Y0212857D01*
X0346884Y0212769D01*
X0350200Y0209857D02*
X0350800Y0210457D01*
X0350800Y0226657D01*
X0350200Y0227257D01*
X0289000Y0227257D01*
X0269200Y0247057D01*
X0265000Y0247057D01*
X0264906Y0247415D01*
X0266200Y0251857D02*
X0242200Y0251857D01*
X0233200Y0242857D01*
X0218200Y0242857D01*
X0217661Y0242415D01*
X0214000Y0243457D02*
X0214000Y0244057D01*
X0221800Y0251857D01*
X0227200Y0251857D01*
X0227346Y0252257D01*
X0237346Y0252257D02*
X0237400Y0252457D01*
X0238000Y0253057D01*
X0337600Y0253057D01*
X0359800Y0230857D01*
X0361600Y0230857D01*
X0371800Y0220657D01*
X0373000Y0221257D02*
X0362200Y0232057D01*
X0360400Y0232057D01*
X0336400Y0256057D01*
X0195400Y0256057D01*
X0193000Y0253657D01*
X0192976Y0253320D01*
X0194200Y0247057D02*
X0191200Y0247057D01*
X0184000Y0239857D01*
X0173800Y0239857D01*
X0173200Y0240457D01*
X0149200Y0240457D01*
X0148600Y0239857D01*
X0142600Y0239857D01*
X0133000Y0230257D01*
X0124600Y0230257D01*
X0124063Y0230163D01*
X0117400Y0226057D02*
X0113800Y0229657D01*
X0098200Y0214057D01*
X0098200Y0185857D01*
X0094000Y0181657D01*
X0094000Y0017257D01*
X0103000Y0008257D01*
X0112600Y0008257D01*
X0113055Y0007769D01*
X0118000Y0009457D02*
X0118000Y0005857D01*
X0119800Y0004057D01*
X0140200Y0004057D01*
X0146800Y0010657D01*
X0146800Y0107857D01*
X0140200Y0114457D01*
X0139685Y0114604D01*
X0139600Y0115057D01*
X0139000Y0115657D01*
X0139000Y0131257D01*
X0138654Y0131659D01*
X0139000Y0131857D01*
X0145600Y0138457D01*
X0145600Y0143257D01*
X0143200Y0145657D01*
X0127000Y0145657D01*
X0114400Y0133057D01*
X0114400Y0129457D01*
X0118600Y0125257D01*
X0118600Y0121657D01*
X0118803Y0121234D01*
X0123400Y0122857D02*
X0123400Y0110857D01*
X0125800Y0110857D01*
X0136000Y0100657D01*
X0135400Y0100057D01*
X0135400Y0068857D01*
X0137200Y0067057D01*
X0139000Y0067057D01*
X0139487Y0066466D01*
X0139600Y0066457D01*
X0139600Y0064057D01*
X0139487Y0063907D01*
X0139000Y0061657D02*
X0139487Y0061348D01*
X0139000Y0061657D02*
X0137800Y0061657D01*
X0125200Y0074257D01*
X0125200Y0106057D01*
X0124600Y0106657D01*
X0124551Y0106761D01*
X0123400Y0110857D02*
X0122800Y0110857D01*
X0116800Y0104857D01*
X0119800Y0101857D01*
X0119800Y0092857D01*
X0120094Y0092478D01*
X0120400Y0092257D01*
X0124000Y0088657D01*
X0124000Y0080857D01*
X0121600Y0078457D01*
X0121000Y0078457D01*
X0116800Y0074257D01*
X0116513Y0074143D01*
X0116800Y0073657D01*
X0116800Y0071857D01*
X0116513Y0071584D01*
X0116800Y0071257D01*
X0116800Y0069457D01*
X0116513Y0069025D01*
X0116800Y0068857D01*
X0116800Y0067057D01*
X0116513Y0066466D01*
X0116800Y0066457D01*
X0116800Y0064057D01*
X0116513Y0063907D01*
X0116800Y0063457D01*
X0119200Y0063457D01*
X0122800Y0059857D01*
X0122800Y0045457D01*
X0118600Y0041257D01*
X0116800Y0041257D01*
X0116513Y0040876D01*
X0116513Y0043435D02*
X0116200Y0043657D01*
X0115000Y0043657D01*
X0099400Y0059257D01*
X0099400Y0062257D01*
X0099000Y0062257D01*
X0103000Y0058057D02*
X0103000Y0073657D01*
X0099400Y0077257D01*
X0099000Y0077257D01*
X0089000Y0077257D02*
X0076500Y0077257D01*
X0067000Y0077257D02*
X0066500Y0077257D01*
X0067000Y0077257D02*
X0067000Y0062257D01*
X0066500Y0062257D01*
X0067000Y0062257D02*
X0067000Y0047257D01*
X0066500Y0047257D01*
X0067000Y0047257D02*
X0067000Y0032257D01*
X0066500Y0032257D01*
X0067000Y0032257D02*
X0067000Y0017257D01*
X0066500Y0017257D01*
X0076500Y0017257D02*
X0089000Y0017257D01*
X0095200Y0020857D02*
X0098800Y0017257D01*
X0099000Y0017257D01*
X0095200Y0020857D02*
X0095200Y0048457D01*
X0097600Y0050857D01*
X0100600Y0050857D01*
X0112600Y0038857D01*
X0118600Y0038857D01*
X0125200Y0045457D01*
X0139000Y0045457D01*
X0139487Y0045994D01*
X0139487Y0043435D02*
X0139600Y0043057D01*
X0141400Y0043057D01*
X0142600Y0041857D01*
X0142600Y0040057D01*
X0136000Y0033457D01*
X0100600Y0033457D01*
X0099400Y0032257D01*
X0099000Y0032257D01*
X0089000Y0032257D02*
X0076500Y0032257D01*
X0056800Y0032257D02*
X0056500Y0032257D01*
X0056800Y0032257D02*
X0056800Y0047257D01*
X0056500Y0047257D01*
X0056800Y0047257D02*
X0056800Y0062257D01*
X0056500Y0062257D01*
X0056800Y0062257D02*
X0056800Y0077257D01*
X0056500Y0077257D01*
X0056800Y0077257D02*
X0056800Y0092257D01*
X0056500Y0092257D01*
X0056800Y0092257D02*
X0056800Y0107257D01*
X0056500Y0107257D01*
X0056800Y0107257D02*
X0056800Y0122257D01*
X0056500Y0122257D01*
X0056200Y0122257D01*
X0056200Y0127657D01*
X0051400Y0132457D01*
X0056200Y0137257D01*
X0056500Y0137257D01*
X0056800Y0137257D01*
X0056800Y0152257D01*
X0056500Y0152257D01*
X0056800Y0152257D02*
X0056800Y0167257D01*
X0056500Y0167257D01*
X0056800Y0167257D02*
X0065800Y0176257D01*
X0070000Y0176257D01*
X0073600Y0179857D01*
X0073600Y0204457D01*
X0073961Y0205013D01*
X0073600Y0205057D01*
X0073600Y0230257D01*
X0065200Y0238657D01*
X0065200Y0239857D01*
X0065063Y0240163D01*
X0058000Y0241657D02*
X0058000Y0236857D01*
X0064600Y0230257D01*
X0065063Y0230163D01*
X0065200Y0229657D01*
X0065200Y0220657D01*
X0065063Y0220163D01*
X0060400Y0206257D02*
X0060400Y0196657D01*
X0065800Y0191257D01*
X0065929Y0190722D01*
X0063400Y0183457D02*
X0065929Y0180722D01*
X0065800Y0181057D01*
X0063400Y0183457D01*
X0018400Y0138457D01*
X0018400Y0132457D01*
X0018052Y0132222D01*
X0038052Y0132222D02*
X0038200Y0132457D01*
X0051400Y0132457D01*
X0066500Y0137257D02*
X0067000Y0137257D01*
X0067000Y0122257D01*
X0066500Y0122257D01*
X0067000Y0122257D02*
X0067000Y0107257D01*
X0066500Y0107257D01*
X0067000Y0107257D02*
X0067000Y0092257D01*
X0066500Y0092257D01*
X0067000Y0092257D02*
X0067000Y0077257D01*
X0076500Y0062257D02*
X0089000Y0062257D01*
X0103000Y0058057D02*
X0115000Y0046057D01*
X0116200Y0046057D01*
X0116513Y0045994D01*
X0116513Y0048553D02*
X0116200Y0049057D01*
X0114400Y0049057D01*
X0104200Y0059257D01*
X0104200Y0087457D01*
X0099400Y0092257D01*
X0099000Y0092257D01*
X0089000Y0092257D02*
X0076500Y0092257D01*
X0076500Y0107257D02*
X0089000Y0107257D01*
X0099400Y0122257D02*
X0105400Y0116257D01*
X0105400Y0063457D01*
X0115000Y0053857D01*
X0116200Y0053857D01*
X0116513Y0053671D01*
X0116800Y0051457D02*
X0116513Y0051112D01*
X0116800Y0051457D02*
X0118600Y0051457D01*
X0120400Y0053257D01*
X0116513Y0056230D02*
X0116200Y0056257D01*
X0115000Y0056257D01*
X0106600Y0064657D01*
X0106600Y0130057D01*
X0099400Y0137257D01*
X0099000Y0137257D01*
X0089000Y0137257D02*
X0076500Y0137257D01*
X0067000Y0137257D02*
X0067000Y0152257D01*
X0066500Y0152257D01*
X0067000Y0152257D02*
X0067000Y0167257D01*
X0066500Y0167257D01*
X0076500Y0167257D02*
X0089000Y0167257D01*
X0099000Y0167257D02*
X0099400Y0167257D01*
X0107800Y0158857D01*
X0107800Y0068257D01*
X0114400Y0061657D01*
X0116200Y0061657D01*
X0116513Y0061348D01*
X0116800Y0059257D02*
X0116513Y0058789D01*
X0116800Y0059257D02*
X0120400Y0059257D01*
X0136600Y0073057D02*
X0137800Y0071857D01*
X0139000Y0071857D01*
X0139487Y0071584D01*
X0139600Y0071257D01*
X0141400Y0071257D01*
X0145000Y0067657D01*
X0145000Y0038857D01*
X0123400Y0017257D01*
X0123400Y0012457D01*
X0123291Y0012100D01*
X0118000Y0009457D02*
X0113200Y0014257D01*
X0113200Y0016057D01*
X0113055Y0016431D01*
X0119200Y0017857D02*
X0119200Y0006457D01*
X0120400Y0005257D01*
X0136000Y0005257D01*
X0142600Y0011857D01*
X0142858Y0012100D01*
X0123400Y0019057D02*
X0120400Y0019057D01*
X0119200Y0017857D01*
X0123400Y0019057D02*
X0143800Y0039457D01*
X0143800Y0066457D01*
X0141400Y0068857D01*
X0139600Y0068857D01*
X0139487Y0069025D01*
X0136600Y0073057D02*
X0136600Y0089257D01*
X0140800Y0093457D01*
X0140811Y0093872D01*
X0136000Y0100657D02*
X0139600Y0104257D01*
X0139685Y0104604D01*
X0116800Y0104857D02*
X0115000Y0106657D01*
X0114551Y0106761D01*
X0110800Y0091657D02*
X0119800Y0082657D01*
X0120094Y0082478D01*
X0110800Y0091657D02*
X0110800Y0140857D01*
X0151000Y0181057D01*
X0182800Y0181057D01*
X0186400Y0184657D01*
X0253000Y0184657D01*
X0254800Y0182857D01*
X0254800Y0059257D01*
X0260200Y0053857D01*
X0262000Y0053857D01*
X0262213Y0053671D01*
X0262600Y0051457D02*
X0262213Y0051112D01*
X0262600Y0050857D01*
X0262600Y0049057D01*
X0262213Y0048553D01*
X0262000Y0046057D02*
X0262213Y0045994D01*
X0262600Y0046057D01*
X0271000Y0046057D01*
X0274000Y0049057D01*
X0280600Y0051457D02*
X0281800Y0052657D01*
X0283000Y0051457D01*
X0284800Y0051457D01*
X0285188Y0051112D01*
X0285400Y0050857D01*
X0285400Y0049057D01*
X0285188Y0048553D01*
X0285400Y0048457D01*
X0285400Y0046057D01*
X0285188Y0045994D01*
X0285400Y0045457D01*
X0285400Y0043657D01*
X0285188Y0043435D01*
X0285400Y0043057D01*
X0287200Y0043057D01*
X0288400Y0041857D01*
X0288400Y0040057D01*
X0281800Y0033457D01*
X0281800Y0028057D01*
X0281638Y0027848D01*
X0272200Y0028057D02*
X0271638Y0027848D01*
X0271600Y0028057D01*
X0262600Y0037057D01*
X0262600Y0040657D01*
X0262213Y0040876D01*
X0262213Y0043435D02*
X0262000Y0043657D01*
X0260200Y0043657D01*
X0252400Y0051457D01*
X0252400Y0182257D01*
X0259600Y0176257D02*
X0259600Y0166657D01*
X0265000Y0161257D01*
X0263331Y0159832D01*
X0263800Y0160057D01*
X0265000Y0161257D01*
X0280000Y0161257D01*
X0280378Y0161313D01*
X0284200Y0164257D02*
X0284200Y0154057D01*
X0276400Y0146257D01*
X0276181Y0145998D01*
X0275800Y0145657D01*
X0275800Y0135457D01*
X0263200Y0135457D01*
X0263110Y0135580D01*
X0275800Y0135457D02*
X0275800Y0131857D01*
X0275732Y0131446D01*
X0281800Y0132457D02*
X0281800Y0141457D01*
X0286000Y0145657D01*
X0286181Y0145998D01*
X0286000Y0146257D01*
X0286000Y0180457D01*
X0280000Y0186457D01*
X0279400Y0186457D01*
X0277000Y0188857D01*
X0276864Y0189147D01*
X0280000Y0191857D02*
X0280600Y0191857D01*
X0294400Y0178057D01*
X0294400Y0140257D01*
X0286000Y0131857D01*
X0285732Y0131446D01*
X0281800Y0132457D02*
X0272200Y0122857D01*
X0272200Y0116257D01*
X0276323Y0112021D02*
X0276400Y0111457D01*
X0276400Y0110257D01*
X0283000Y0103657D01*
X0283000Y0103320D01*
X0295600Y0095857D02*
X0271600Y0071857D01*
X0262600Y0071857D01*
X0262213Y0071584D01*
X0262600Y0069457D02*
X0262213Y0069025D01*
X0262600Y0069457D02*
X0268000Y0069457D01*
X0271000Y0074257D02*
X0262600Y0074257D01*
X0262213Y0074143D01*
X0271000Y0074257D02*
X0298000Y0101257D01*
X0298000Y0133057D01*
X0302200Y0137257D01*
X0302701Y0137257D01*
X0312701Y0137257D02*
X0325201Y0137257D01*
X0335201Y0137257D02*
X0335800Y0137257D01*
X0335800Y0122257D01*
X0335201Y0122257D01*
X0335800Y0122257D02*
X0335800Y0107257D01*
X0335201Y0107257D01*
X0335800Y0107257D02*
X0335800Y0092257D01*
X0335201Y0092257D01*
X0335800Y0092257D02*
X0335800Y0077257D01*
X0335201Y0077257D01*
X0335800Y0077257D02*
X0335800Y0062257D01*
X0335201Y0062257D01*
X0335800Y0062257D02*
X0335800Y0047257D01*
X0335201Y0047257D01*
X0335800Y0047257D02*
X0335800Y0032257D01*
X0335201Y0032257D01*
X0335800Y0032257D02*
X0335800Y0017257D01*
X0335201Y0017257D01*
X0325201Y0017257D02*
X0312701Y0017257D01*
X0302701Y0017257D02*
X0302200Y0017257D01*
X0299200Y0020257D01*
X0299200Y0041257D01*
X0287200Y0053257D01*
X0285400Y0053257D01*
X0285188Y0053671D01*
X0285400Y0055657D02*
X0285188Y0056230D01*
X0285400Y0055657D02*
X0287200Y0055657D01*
X0302200Y0040657D01*
X0302200Y0032257D01*
X0302701Y0032257D01*
X0312701Y0032257D02*
X0325201Y0032257D01*
X0345201Y0032257D02*
X0345400Y0032257D01*
X0345400Y0047257D01*
X0345201Y0047257D01*
X0345400Y0047257D02*
X0345400Y0062257D01*
X0345201Y0062257D01*
X0345400Y0062257D02*
X0345400Y0077257D01*
X0345201Y0077257D01*
X0345400Y0077257D02*
X0345400Y0092257D01*
X0345201Y0092257D01*
X0345400Y0092257D02*
X0345400Y0107257D01*
X0345201Y0107257D01*
X0345400Y0107257D02*
X0345400Y0122257D01*
X0345201Y0122257D01*
X0345400Y0122257D02*
X0345400Y0137257D01*
X0345201Y0137257D01*
X0345400Y0137257D02*
X0345400Y0152257D01*
X0345201Y0152257D01*
X0345400Y0152257D02*
X0345400Y0167257D01*
X0345201Y0167257D01*
X0335800Y0167257D02*
X0335201Y0167257D01*
X0335800Y0167257D02*
X0335800Y0152257D01*
X0335201Y0152257D01*
X0335800Y0152257D02*
X0335800Y0137257D01*
X0325201Y0122257D02*
X0312701Y0122257D01*
X0302701Y0122257D02*
X0302200Y0122257D01*
X0299200Y0119257D01*
X0299200Y0100657D01*
X0298000Y0099457D01*
X0298000Y0082657D01*
X0287200Y0071857D01*
X0285400Y0071857D01*
X0285188Y0071584D01*
X0284800Y0073657D02*
X0283000Y0073657D01*
X0281800Y0072457D01*
X0281800Y0052657D01*
X0280600Y0051457D02*
X0262600Y0051457D01*
X0258400Y0048457D02*
X0260800Y0046057D01*
X0262000Y0046057D01*
X0272200Y0028057D02*
X0284800Y0040657D01*
X0285188Y0040876D01*
X0302200Y0047257D02*
X0302701Y0047257D01*
X0302200Y0047257D02*
X0290800Y0058657D01*
X0285400Y0058657D01*
X0285188Y0058789D01*
X0285188Y0061348D02*
X0285400Y0061657D01*
X0301600Y0061657D01*
X0302200Y0062257D01*
X0302701Y0062257D01*
X0312701Y0062257D02*
X0325201Y0062257D01*
X0325201Y0077257D02*
X0312701Y0077257D01*
X0302701Y0077257D02*
X0302200Y0077257D01*
X0289000Y0064057D01*
X0285400Y0064057D01*
X0285188Y0063907D01*
X0285188Y0066466D02*
X0285400Y0067057D01*
X0287200Y0067057D01*
X0302200Y0082057D01*
X0302200Y0092257D01*
X0302701Y0092257D01*
X0299200Y0098857D02*
X0302200Y0101857D01*
X0302200Y0107257D01*
X0302701Y0107257D01*
X0299200Y0098857D02*
X0299200Y0081457D01*
X0287200Y0069457D01*
X0285400Y0069457D01*
X0285188Y0069025D01*
X0284800Y0073657D02*
X0285188Y0074143D01*
X0280000Y0085057D02*
X0271000Y0085057D01*
X0270811Y0084935D01*
X0280000Y0085057D02*
X0287800Y0092857D01*
X0268000Y0096457D02*
X0263200Y0096457D01*
X0263087Y0096785D01*
X0263087Y0104265D02*
X0263200Y0104857D01*
X0263200Y0113857D01*
X0263031Y0114352D01*
X0286600Y0141457D02*
X0290200Y0145057D01*
X0290200Y0165457D01*
X0290614Y0165643D01*
X0284200Y0164257D02*
X0280600Y0167857D01*
X0280600Y0169657D01*
X0280378Y0169974D01*
X0280000Y0170257D01*
X0263800Y0170257D01*
X0263331Y0169832D01*
X0259600Y0176257D02*
X0272200Y0188857D01*
X0272200Y0196657D01*
X0273400Y0197857D01*
X0280000Y0197857D01*
X0282400Y0200257D01*
X0282400Y0215257D01*
X0279400Y0218257D01*
X0277000Y0218257D01*
X0276864Y0218675D01*
X0276400Y0224257D02*
X0269200Y0224257D01*
X0255400Y0210457D01*
X0254969Y0210289D01*
X0254969Y0220289D02*
X0255400Y0220657D01*
X0265000Y0230257D01*
X0276400Y0230257D01*
X0276864Y0230486D01*
X0277000Y0230257D01*
X0277600Y0229657D01*
X0281800Y0229657D01*
X0287200Y0230857D02*
X0266200Y0251857D01*
X0264906Y0237415D02*
X0265000Y0236857D01*
X0277600Y0236857D01*
X0289600Y0224857D01*
X0346600Y0224857D01*
X0346884Y0224580D01*
X0346884Y0230486D02*
X0346600Y0230857D01*
X0287200Y0230857D01*
X0276864Y0224580D02*
X0276400Y0224257D01*
X0248800Y0232657D02*
X0240400Y0241057D01*
X0221800Y0241057D01*
X0208000Y0227257D01*
X0190000Y0227257D01*
X0189728Y0226805D01*
X0189728Y0229364D02*
X0190000Y0229657D01*
X0194800Y0229657D01*
X0190000Y0232057D02*
X0189728Y0231923D01*
X0190000Y0232057D02*
X0202600Y0232057D01*
X0214000Y0243457D01*
X0207661Y0242415D02*
X0207400Y0242257D01*
X0204400Y0239257D01*
X0196600Y0239257D01*
X0196600Y0244657D01*
X0194200Y0247057D01*
X0192976Y0243320D02*
X0192400Y0242857D01*
X0184600Y0235057D01*
X0184600Y0224257D01*
X0187000Y0221857D01*
X0189400Y0221857D01*
X0189728Y0221687D01*
X0189728Y0224246D02*
X0189400Y0224257D01*
X0187000Y0224257D01*
X0185800Y0225457D01*
X0185800Y0233257D01*
X0191800Y0239257D01*
X0196600Y0239257D01*
X0214000Y0222457D02*
X0215200Y0223657D01*
X0218200Y0223657D01*
X0218272Y0224246D01*
X0218800Y0224257D01*
X0218800Y0226657D01*
X0218272Y0226805D01*
X0218800Y0227257D01*
X0221800Y0227257D01*
X0223600Y0229057D01*
X0229000Y0227257D02*
X0229000Y0237257D01*
X0239000Y0237257D02*
X0239200Y0236857D01*
X0242800Y0233257D01*
X0242800Y0203857D01*
X0236800Y0197857D01*
X0236800Y0191857D01*
X0236535Y0191273D01*
X0226600Y0191857D02*
X0226535Y0191273D01*
X0226000Y0191257D01*
X0191200Y0191257D01*
X0182200Y0182257D01*
X0145600Y0182257D01*
X0139000Y0175657D01*
X0138961Y0175313D01*
X0138400Y0175057D01*
X0126400Y0175057D01*
X0112600Y0188857D01*
X0112425Y0189108D01*
X0114400Y0196057D02*
X0109600Y0196057D01*
X0103000Y0189457D01*
X0102425Y0189108D01*
X0103000Y0188857D01*
X0103000Y0167257D01*
X0115600Y0154657D01*
X0115850Y0154502D01*
X0115850Y0164502D02*
X0116200Y0164857D01*
X0126400Y0175057D01*
X0138400Y0185857D02*
X0138961Y0185313D01*
X0138400Y0185857D02*
X0124600Y0185857D01*
X0114400Y0196057D01*
X0137800Y0209857D02*
X0142600Y0205057D01*
X0142600Y0203257D01*
X0158200Y0187657D01*
X0160600Y0187657D01*
X0160961Y0187116D01*
X0161200Y0187057D01*
X0164800Y0183457D01*
X0181600Y0183457D01*
X0199000Y0200857D01*
X0218200Y0200857D01*
X0218272Y0201214D01*
X0218272Y0198655D02*
X0218200Y0198457D01*
X0199600Y0198457D01*
X0193000Y0196657D02*
X0183400Y0196657D01*
X0170800Y0209257D01*
X0167800Y0209257D01*
X0167205Y0209691D01*
X0167800Y0209857D01*
X0167800Y0225457D01*
X0167299Y0225580D01*
X0161200Y0225457D02*
X0161000Y0225580D01*
X0161200Y0225457D02*
X0161200Y0203857D01*
X0177400Y0187657D01*
X0177898Y0187116D01*
X0193000Y0196657D02*
X0207400Y0211057D01*
X0218200Y0211057D01*
X0218272Y0211450D01*
X0218800Y0213457D02*
X0218272Y0214009D01*
X0218200Y0214057D01*
X0215200Y0214057D01*
X0214000Y0215257D01*
X0214000Y0217057D01*
X0190000Y0217057D01*
X0189728Y0216569D01*
X0189400Y0216457D01*
X0184000Y0216457D01*
X0177400Y0209857D01*
X0177205Y0209691D01*
X0160961Y0197116D02*
X0160600Y0197257D01*
X0149800Y0208057D01*
X0154600Y0212857D01*
X0154600Y0225457D01*
X0154701Y0225580D01*
X0163600Y0230857D02*
X0164150Y0230698D01*
X0163600Y0230857D02*
X0163600Y0234457D01*
X0158800Y0239257D01*
X0149800Y0239257D01*
X0148600Y0238057D01*
X0142600Y0238057D01*
X0137800Y0233257D01*
X0137800Y0209857D01*
X0146800Y0205057D02*
X0146795Y0205013D01*
X0146800Y0205057D02*
X0149800Y0208057D01*
X0124000Y0239857D02*
X0113800Y0229657D01*
X0124000Y0239857D02*
X0124063Y0240163D01*
X0065063Y0250163D02*
X0064600Y0250057D01*
X0064600Y0248257D01*
X0058000Y0241657D01*
X0045400Y0238057D02*
X0045063Y0238320D01*
X0045400Y0238057D02*
X0045400Y0221257D01*
X0060400Y0206257D01*
X0056800Y0190057D02*
X0050800Y0190057D01*
X0050346Y0190131D01*
X0050200Y0190657D01*
X0035200Y0205657D01*
X0035200Y0212257D01*
X0035063Y0212257D01*
X0035200Y0212257D02*
X0035200Y0238057D01*
X0035063Y0238320D01*
X0056800Y0190057D02*
X0063400Y0183457D01*
X0076500Y0152257D02*
X0089000Y0152257D01*
X0118803Y0131234D02*
X0119200Y0130657D01*
X0119200Y0127057D01*
X0123400Y0122857D01*
X0119200Y0131257D02*
X0118803Y0131234D01*
X0119200Y0131257D02*
X0129400Y0141457D01*
X0138400Y0141457D01*
X0138654Y0141659D01*
X0099400Y0122257D02*
X0099000Y0122257D01*
X0089000Y0122257D02*
X0076500Y0122257D01*
X0139600Y0082657D02*
X0140800Y0083857D01*
X0140811Y0083872D01*
X0139600Y0082657D02*
X0139600Y0074257D01*
X0139487Y0074143D01*
X0109000Y0037657D02*
X0099400Y0047257D01*
X0099000Y0047257D01*
X0089000Y0047257D02*
X0076500Y0047257D01*
X0109000Y0037657D02*
X0119200Y0037657D01*
X0122200Y0040657D01*
X0139000Y0040657D01*
X0139487Y0040876D01*
X0312701Y0047257D02*
X0325201Y0047257D01*
X0345400Y0032257D02*
X0345400Y0017257D01*
X0345201Y0017257D01*
X0325201Y0092257D02*
X0312701Y0092257D01*
X0312701Y0107257D02*
X0325201Y0107257D01*
X0325201Y0152257D02*
X0312701Y0152257D01*
X0312701Y0167257D02*
X0325201Y0167257D01*
X0312400Y0182857D02*
X0301600Y0172057D01*
X0312400Y0182857D02*
X0346600Y0182857D01*
X0346884Y0183242D01*
X0343600Y0186457D02*
X0350200Y0186457D01*
X0373000Y0209257D01*
X0373000Y0221257D01*
X0364822Y0236378D02*
X0365200Y0236857D01*
X0390400Y0236857D01*
X0390422Y0236378D01*
X0352000Y0235657D02*
X0347200Y0230857D01*
X0346884Y0230486D01*
X0349600Y0209857D02*
X0347200Y0207457D01*
X0346884Y0206864D01*
X0349600Y0209857D02*
X0350200Y0209857D01*
X0280000Y0191857D02*
X0277000Y0194857D01*
X0276864Y0195053D01*
X0276400Y0200857D02*
X0272800Y0200857D01*
X0268600Y0196657D01*
X0268425Y0196061D01*
X0266800Y0200857D02*
X0253000Y0200857D01*
X0251200Y0199057D01*
X0236800Y0203257D02*
X0236535Y0202927D01*
X0236800Y0203257D02*
X0236800Y0216457D01*
X0238600Y0218257D01*
X0238882Y0218478D01*
X0228882Y0218478D02*
X0228400Y0218257D01*
X0227200Y0217057D01*
X0218800Y0217057D01*
X0218272Y0216569D01*
X0218272Y0219128D02*
X0218800Y0219457D01*
X0221200Y0219457D01*
X0229000Y0227257D01*
X0214000Y0222457D02*
X0214000Y0217057D01*
X0218800Y0213457D02*
X0221800Y0213457D01*
X0222400Y0212857D01*
X0222400Y0207457D01*
X0221800Y0206857D01*
X0218800Y0206857D01*
X0218272Y0206332D01*
X0226535Y0202927D02*
X0226600Y0202657D01*
X0226600Y0191857D01*
X0269800Y0183457D02*
X0276400Y0183457D01*
X0276864Y0183242D01*
X0276400Y0200857D02*
X0276864Y0200958D01*
D29*
X0266800Y0200857D03*
X0251200Y0199057D03*
X0269800Y0183457D03*
X0252400Y0182257D03*
X0301600Y0172057D03*
X0341800Y0196057D03*
X0352000Y0235657D03*
X0281800Y0229657D03*
X0223600Y0229057D03*
X0194800Y0229657D03*
X0199600Y0198457D03*
X0117400Y0226057D03*
X0286600Y0141457D03*
X0295600Y0095857D03*
X0268000Y0069457D03*
X0274000Y0049057D03*
X0258400Y0048457D03*
X0120400Y0053257D03*
X0120400Y0059257D03*
M02*
